<?xml version="1.0" encoding="UTF-8" standalone="no"?>
<!DOCTYPE svg PUBLIC "-//W3C//DTD SVG 1.1//EN"
 "http://www.w3.org/Graphics/SVG/1.1/DTD/svg11.dtd">
<!-- Generated by graphviz version 2.43.0 (0)
 -->
<!-- Title: financesim::SavingsAccount::on_income Pages: 1 -->
<svg width="858pt" height="138pt"
 viewBox="0.00 0.00 858.00 137.62" xmlns="http://www.w3.org/2000/svg" xmlns:xlink="http://www.w3.org/1999/xlink">
<g id="graph0" class="graph" transform="scale(1 1) rotate(0) translate(4 133.62)">
<title>financesim::SavingsAccount::on_income</title>
<!-- Node1 -->
<g id="Node000001" class="node">
<title>Node1</title>
<g id="a_Node000001"><a xlink:title="Called when an income event is routed to this account.">
<polygon fill="#999999" stroke="#666666" points="153,-62 0,-62 0,-32 153,-32 153,-62"/>
<text text-anchor="start" x="8" y="-50" font-family="Helvetica,sans-Serif" font-size="10.00">financesim::SavingsAccount</text>
<text text-anchor="middle" x="76.5" y="-39" font-family="Helvetica,sans-Serif" font-size="10.00">::on_income</text>
</a>
</g>
</g>
<!-- Node2 -->
<g id="Node000002" class="node">
<title>Node2</title>
<g id="a_Node000002"><a xlink:href="classfinancesim_1_1SavingsAccount.html#a99f2df8b57924c01873a70bc567b77e2" target="_top" xlink:title=" ">
<polygon fill="white" stroke="#666666" points="342,-62 189,-62 189,-32 342,-32 342,-62"/>
<text text-anchor="start" x="197" y="-50" font-family="Helvetica,sans-Serif" font-size="10.00">financesim::SavingsAccount</text>
<text text-anchor="middle" x="265.5" y="-39" font-family="Helvetica,sans-Serif" font-size="10.00">::accrue_interest_up_to</text>
</a>
</g>
</g>
<!-- Node1&#45;&gt;Node2 -->
<g id="edge1_Node000001_Node000002" class="edge">
<title>Node1&#45;&gt;Node2</title>
<g id="a_edge1_Node000001_Node000002"><a xlink:title=" ">
<path fill="none" stroke="#63b8ff" d="M153.02,-47C161.47,-47 170.13,-47 178.7,-47"/>
<polygon fill="#63b8ff" stroke="#63b8ff" points="178.7,-50.5 188.7,-47 178.7,-43.5 178.7,-50.5"/>
</a>
</g>
</g>
<!-- Node5 -->
<g id="Node000005" class="node">
<title>Node5</title>
<g id="a_Node000005"><a xlink:href="classfinancesim_1_1AccountBase.html#a92e881e34f26e1b4da68365d6dccdb7b" target="_top" xlink:title=" ">
<polygon fill="white" stroke="#666666" points="692,-64 553,-64 553,-34 692,-34 692,-64"/>
<text text-anchor="start" x="561" y="-52" font-family="Helvetica,sans-Serif" font-size="10.00">financesim::AccountBase</text>
<text text-anchor="middle" x="622.5" y="-41" font-family="Helvetica,sans-Serif" font-size="10.00">::emit</text>
</a>
</g>
</g>
<!-- Node1&#45;&gt;Node5 -->
<g id="edge8_Node000001_Node000005" class="edge">
<title>Node1&#45;&gt;Node5</title>
<g id="a_edge8_Node000001_Node000005"><a xlink:title=" ">
<path fill="none" stroke="#63b8ff" d="M138.83,-31.97C155.05,-28.5 172.61,-25.18 189,-23 333.57,-3.74 373.16,11.08 517,-13 537.37,-16.41 559.09,-23.32 577.42,-30.18"/>
<polygon fill="#63b8ff" stroke="#63b8ff" points="576.36,-33.52 586.95,-33.86 578.88,-26.99 576.36,-33.52"/>
</a>
</g>
</g>
<!-- Node7 -->
<g id="Node000007" class="node">
<title>Node7</title>
<g id="a_Node000007"><a xlink:href="classfinancesim_1_1AccountBase.html#a5a7f0f423a2fa6193c44b3c118c5c359" target="_top" xlink:title="Called when an income event is routed to this account.">
<polygon fill="white" stroke="#666666" points="335,-110 196,-110 196,-80 335,-80 335,-110"/>
<text text-anchor="start" x="204" y="-98" font-family="Helvetica,sans-Serif" font-size="10.00">financesim::AccountBase</text>
<text text-anchor="middle" x="265.5" y="-87" font-family="Helvetica,sans-Serif" font-size="10.00">::on_income</text>
</a>
</g>
</g>
<!-- Node1&#45;&gt;Node7 -->
<g id="edge9_Node000001_Node000007" class="edge">
<title>Node1&#45;&gt;Node7</title>
<g id="a_edge9_Node000001_Node000007"><a xlink:title=" ">
<path fill="none" stroke="#63b8ff" d="M136.15,-62.06C155.21,-66.95 176.53,-72.42 196.23,-77.48"/>
<polygon fill="#63b8ff" stroke="#63b8ff" points="195.5,-80.9 206.05,-80 197.24,-74.12 195.5,-80.9"/>
</a>
</g>
</g>
<!-- Node3 -->
<g id="Node000003" class="node">
<title>Node3</title>
<g id="a_Node000003"><a xlink:href="classfinancesim_1_1AccountBase.html#a98c0d8ec369cda419aea938372d0dcbc" target="_top" xlink:title="Get current balance.">
<polygon fill="white" stroke="#666666" points="517,-62 378,-62 378,-32 517,-32 517,-62"/>
<text text-anchor="start" x="386" y="-50" font-family="Helvetica,sans-Serif" font-size="10.00">financesim::AccountBase</text>
<text text-anchor="middle" x="447.5" y="-39" font-family="Helvetica,sans-Serif" font-size="10.00">::balance</text>
</a>
</g>
</g>
<!-- Node2&#45;&gt;Node3 -->
<g id="edge2_Node000002_Node000003" class="edge">
<title>Node2&#45;&gt;Node3</title>
<g id="a_edge2_Node000002_Node000003"><a xlink:title=" ">
<path fill="none" stroke="#63b8ff" d="M342.05,-47C350.47,-47 359.05,-47 367.51,-47"/>
<polygon fill="#63b8ff" stroke="#63b8ff" points="367.73,-50.5 377.73,-47 367.73,-43.5 367.73,-50.5"/>
</a>
</g>
</g>
<!-- Node4 -->
<g id="Node000004" class="node">
<title>Node4</title>
<g id="a_Node000004"><a xlink:href="classfinancesim_1_1AccountBase.html#a71367336b1187fc22ec0d52e456b8e8a" target="_top" xlink:title="Deposit funds into the account.">
<polygon fill="white" stroke="#666666" points="517,-110 378,-110 378,-80 517,-80 517,-110"/>
<text text-anchor="start" x="386" y="-98" font-family="Helvetica,sans-Serif" font-size="10.00">financesim::AccountBase</text>
<text text-anchor="middle" x="447.5" y="-87" font-family="Helvetica,sans-Serif" font-size="10.00">::deposit</text>
</a>
</g>
</g>
<!-- Node2&#45;&gt;Node4 -->
<g id="edge3_Node000002_Node000004" class="edge">
<title>Node2&#45;&gt;Node4</title>
<g id="a_edge3_Node000002_Node000004"><a xlink:title=" ">
<path fill="none" stroke="#63b8ff" d="M322.96,-62.06C341.22,-66.93 361.63,-72.37 380.52,-77.41"/>
<polygon fill="#63b8ff" stroke="#63b8ff" points="379.68,-80.8 390.24,-80 381.48,-74.04 379.68,-80.8"/>
</a>
</g>
</g>
<!-- Node2&#45;&gt;Node5 -->
<g id="edge7_Node000002_Node000005" class="edge">
<title>Node2&#45;&gt;Node5</title>
<g id="a_edge7_Node000002_Node000005"><a xlink:title=" ">
<path fill="none" stroke="#63b8ff" d="M325.15,-31.94C342.08,-28.26 360.67,-24.85 378,-23 439.43,-16.46 455.68,-15.49 517,-23 531.7,-24.8 547.31,-27.98 561.86,-31.51"/>
<polygon fill="#63b8ff" stroke="#63b8ff" points="561.18,-34.95 571.73,-33.99 562.89,-28.16 561.18,-34.95"/>
</a>
</g>
</g>
<!-- Node4&#45;&gt;Node5 -->
<g id="edge4_Node000004_Node000005" class="edge">
<title>Node4&#45;&gt;Node5</title>
<g id="a_edge4_Node000004_Node000005"><a xlink:title=" ">
<path fill="none" stroke="#63b8ff" d="M505.15,-79.94C521.06,-75.71 538.51,-71.07 554.94,-66.7"/>
<polygon fill="#63b8ff" stroke="#63b8ff" points="556.26,-69.97 565.02,-64.02 554.46,-63.21 556.26,-69.97"/>
</a>
</g>
</g>
<!-- Node5&#45;&gt;Node5 -->
<g id="edge5_Node000005_Node000005" class="edge">
<title>Node5&#45;&gt;Node5</title>
<g id="a_edge5_Node000005_Node000005"><a xlink:title=" ">
<path fill="none" stroke="#63b8ff" d="M593.32,-64.28C586.84,-73.41 596.56,-82 622.5,-82 637.9,-82 647.59,-78.97 651.56,-74.6"/>
<polygon fill="#63b8ff" stroke="#63b8ff" points="655.06,-74.32 651.68,-64.28 648.06,-74.23 655.06,-74.32"/>
</a>
</g>
</g>
<!-- Node6 -->
<g id="Node000006" class="node">
<title>Node6</title>
<g id="a_Node000006"><a xlink:href="classfinancesim_1_1EventBus.html#a94b4690f4c8a00f2e9fd395bfc7a3b4d" target="_top" xlink:title="Publish an event to all subscribers.">
<polygon fill="white" stroke="#666666" points="850,-64 728,-64 728,-34 850,-34 850,-64"/>
<text text-anchor="start" x="736" y="-52" font-family="Helvetica,sans-Serif" font-size="10.00">financesim::EventBus</text>
<text text-anchor="middle" x="789" y="-41" font-family="Helvetica,sans-Serif" font-size="10.00">::publish</text>
</a>
</g>
</g>
<!-- Node5&#45;&gt;Node6 -->
<g id="edge6_Node000005_Node000006" class="edge">
<title>Node5&#45;&gt;Node6</title>
<g id="a_edge6_Node000005_Node000006"><a xlink:title=" ">
<path fill="none" stroke="#63b8ff" d="M692.31,-49C700.7,-49 709.28,-49 717.68,-49"/>
<polygon fill="#63b8ff" stroke="#63b8ff" points="717.83,-52.5 727.83,-49 717.83,-45.5 717.83,-52.5"/>
</a>
</g>
</g>
<!-- Node7&#45;&gt;Node4 -->
<g id="edge10_Node000007_Node000004" class="edge">
<title>Node7&#45;&gt;Node4</title>
<g id="a_edge10_Node000007_Node000004"><a xlink:title=" ">
<path fill="none" stroke="#63b8ff" d="M335.06,-95C345.68,-95 356.72,-95 367.54,-95"/>
<polygon fill="#63b8ff" stroke="#63b8ff" points="367.83,-98.5 377.83,-95 367.83,-91.5 367.83,-98.5"/>
</a>
</g>
</g>
<!-- Node7&#45;&gt;Node5 -->
<g id="edge11_Node000007_Node000005" class="edge">
<title>Node7&#45;&gt;Node5</title>
<g id="a_edge11_Node000007_Node000005"><a xlink:title=" ">
<path fill="none" stroke="#63b8ff" d="M313.28,-110.02C364.41,-124.03 448.24,-139.9 517,-119 548.03,-109.57 578.23,-87.52 598.12,-70.66"/>
<polygon fill="#63b8ff" stroke="#63b8ff" points="600.49,-73.25 605.73,-64.04 595.89,-67.97 600.49,-73.25"/>
</a>
</g>
</g>
</g>
</svg>
