<?xml version="1.0" encoding="UTF-8" standalone="no"?>
<!DOCTYPE svg PUBLIC "-//W3C//DTD SVG 1.1//EN"
 "http://www.w3.org/Graphics/SVG/1.1/DTD/svg11.dtd">
<!-- Generated by graphviz version 2.43.0 (0)
 -->
<!-- Title: financesim::SavingsAccount::initialize Pages: 1 -->
<svg width="1042pt" height="220pt"
 viewBox="0.00 0.00 1042.00 219.50" xmlns="http://www.w3.org/2000/svg" xmlns:xlink="http://www.w3.org/1999/xlink">
<g id="graph0" class="graph" transform="scale(1 1) rotate(0) translate(4 215.5)">
<title>financesim::SavingsAccount::initialize</title>
<!-- Node1 -->
<g id="Node000001" class="node">
<title>Node1</title>
<g id="a_Node000001"><a xlink:title=" ">
<polygon fill="#999999" stroke="#666666" points="153,-171 0,-171 0,-141 153,-141 153,-171"/>
<text text-anchor="start" x="8" y="-159" font-family="Helvetica,sans-Serif" font-size="10.00">financesim::SavingsAccount</text>
<text text-anchor="middle" x="76.5" y="-148" font-family="Helvetica,sans-Serif" font-size="10.00">::initialize</text>
</a>
</g>
</g>
<!-- Node2 -->
<g id="Node000002" class="node">
<title>Node2</title>
<g id="a_Node000002"><a xlink:href="classfinancesim_1_1AccountBase.html#a8e5566e36e73fe4712c316080ccddb01" target="_top" xlink:title=" ">
<polygon fill="white" stroke="#666666" points="526,-211.5 364,-211.5 364,-192.5 526,-192.5 526,-211.5"/>
<text text-anchor="middle" x="445" y="-199.5" font-family="Helvetica,sans-Serif" font-size="10.00">financesim::AccountBase::bus</text>
</a>
</g>
</g>
<!-- Node1&#45;&gt;Node2 -->
<g id="edge1_Node000001_Node000002" class="edge">
<title>Node1&#45;&gt;Node2</title>
<g id="a_edge1_Node000001_Node000002"><a xlink:title=" ">
<path fill="none" stroke="#63b8ff" d="M153.44,-165.53C213.02,-173.01 295.98,-183.42 358,-191.21"/>
<polygon fill="#63b8ff" stroke="#63b8ff" points="357.8,-194.71 368.16,-192.48 358.67,-187.76 357.8,-194.71"/>
</a>
</g>
</g>
<!-- Node3 -->
<g id="Node000003" class="node">
<title>Node3</title>
<g id="a_Node000003"><a xlink:href="classfinancesim_1_1AccountBase.html#af3f65334454741897f5b010c01ac9291" target="_top" xlink:title=" ">
<polygon fill="white" stroke="#666666" points="328,-150 189,-150 189,-120 328,-120 328,-150"/>
<text text-anchor="start" x="197" y="-138" font-family="Helvetica,sans-Serif" font-size="10.00">financesim::AccountBase</text>
<text text-anchor="middle" x="258.5" y="-127" font-family="Helvetica,sans-Serif" font-size="10.00">::initialize</text>
</a>
</g>
</g>
<!-- Node1&#45;&gt;Node3 -->
<g id="edge2_Node000001_Node000003" class="edge">
<title>Node1&#45;&gt;Node3</title>
<g id="a_edge2_Node000001_Node000003"><a xlink:title=" ">
<path fill="none" stroke="#63b8ff" d="M153.05,-147.19C161.56,-146.19 170.24,-145.18 178.79,-144.18"/>
<polygon fill="#63b8ff" stroke="#63b8ff" points="179.21,-147.66 188.73,-143.02 178.4,-140.71 179.21,-147.66"/>
</a>
</g>
</g>
<!-- Node3&#45;&gt;Node2 -->
<g id="edge3_Node000003_Node000002" class="edge">
<title>Node3&#45;&gt;Node2</title>
<g id="a_edge3_Node000003_Node000002"><a xlink:title=" ">
<path fill="none" stroke="#63b8ff" d="M288.15,-150.03C308.8,-160.39 337.57,-173.89 364,-183 371.4,-185.55 379.3,-187.88 387.15,-189.97"/>
<polygon fill="#63b8ff" stroke="#63b8ff" points="386.47,-193.4 397.02,-192.48 388.19,-186.62 386.47,-193.4"/>
</a>
</g>
</g>
<!-- Node4 -->
<g id="Node000004" class="node">
<title>Node4</title>
<g id="a_Node000004"><a xlink:href="classfinancesim_1_1AccountBase.html#ab551367fd2cc985c98c0aadfdc7fb4e1" target="_top" xlink:title="Called when an expense event is routed to this account.">
<polygon fill="white" stroke="#666666" points="514.5,-174 375.5,-174 375.5,-144 514.5,-144 514.5,-174"/>
<text text-anchor="start" x="383.5" y="-162" font-family="Helvetica,sans-Serif" font-size="10.00">financesim::AccountBase</text>
<text text-anchor="middle" x="445" y="-151" font-family="Helvetica,sans-Serif" font-size="10.00">::on_expense</text>
</a>
</g>
</g>
<!-- Node3&#45;&gt;Node4 -->
<g id="edge4_Node000003_Node000004" class="edge">
<title>Node3&#45;&gt;Node4</title>
<g id="a_edge4_Node000003_Node000004"><a xlink:title=" ">
<path fill="none" stroke="#63b8ff" d="M328.2,-143.94C340.21,-145.5 352.78,-147.13 365.04,-148.73"/>
<polygon fill="#63b8ff" stroke="#63b8ff" points="364.87,-152.24 375.24,-150.06 365.78,-145.3 364.87,-152.24"/>
</a>
</g>
</g>
<!-- Node8 -->
<g id="Node000008" class="node">
<title>Node8</title>
<g id="a_Node000008"><a xlink:href="classfinancesim_1_1AccountBase.html#a5a7f0f423a2fa6193c44b3c118c5c359" target="_top" xlink:title="Called when an income event is routed to this account.">
<polygon fill="white" stroke="#666666" points="514.5,-126 375.5,-126 375.5,-96 514.5,-96 514.5,-126"/>
<text text-anchor="start" x="383.5" y="-114" font-family="Helvetica,sans-Serif" font-size="10.00">financesim::AccountBase</text>
<text text-anchor="middle" x="445" y="-103" font-family="Helvetica,sans-Serif" font-size="10.00">::on_income</text>
</a>
</g>
</g>
<!-- Node3&#45;&gt;Node8 -->
<g id="edge10_Node000003_Node000008" class="edge">
<title>Node3&#45;&gt;Node8</title>
<g id="a_edge10_Node000003_Node000008"><a xlink:title=" ">
<path fill="none" stroke="#63b8ff" d="M328.2,-126.06C340.21,-124.5 352.78,-122.87 365.04,-121.27"/>
<polygon fill="#63b8ff" stroke="#63b8ff" points="365.78,-124.7 375.24,-119.94 364.87,-117.76 365.78,-124.7"/>
</a>
</g>
</g>
<!-- Node10 -->
<g id="Node000010" class="node">
<title>Node10</title>
<g id="a_Node000010"><a xlink:href="classfinancesim_1_1AccountBase.html#a858abc266902f436adb7b18b77f534f4" target="_top" xlink:title=" ">
<polygon fill="white" stroke="#666666" points="514.5,-78 375.5,-78 375.5,-48 514.5,-48 514.5,-78"/>
<text text-anchor="start" x="383.5" y="-66" font-family="Helvetica,sans-Serif" font-size="10.00">financesim::AccountBase</text>
<text text-anchor="middle" x="445" y="-55" font-family="Helvetica,sans-Serif" font-size="10.00">::should_handle_event</text>
</a>
</g>
</g>
<!-- Node3&#45;&gt;Node10 -->
<g id="edge14_Node000003_Node000010" class="edge">
<title>Node3&#45;&gt;Node10</title>
<g id="a_edge14_Node000003_Node000010"><a xlink:title=" ">
<path fill="none" stroke="#63b8ff" d="M289.66,-119.79C310.28,-109.73 338.41,-96.66 364,-87 369.17,-85.05 374.58,-83.14 380.03,-81.32"/>
<polygon fill="#63b8ff" stroke="#63b8ff" points="381.44,-84.54 389.87,-78.12 379.27,-77.88 381.44,-84.54"/>
</a>
</g>
</g>
<!-- Node11 -->
<g id="Node000011" class="node">
<title>Node11</title>
<g id="a_Node000011"><a xlink:href="classfinancesim_1_1EventBus.html#a46561b352c68d6e754babc95ae91f1ee" target="_top" xlink:title=" ">
<polygon fill="white" stroke="#666666" points="506,-30 384,-30 384,0 506,0 506,-30"/>
<text text-anchor="start" x="392" y="-18" font-family="Helvetica,sans-Serif" font-size="10.00">financesim::EventBus</text>
<text text-anchor="middle" x="445" y="-7" font-family="Helvetica,sans-Serif" font-size="10.00">::subscribe</text>
</a>
</g>
</g>
<!-- Node3&#45;&gt;Node11 -->
<g id="edge15_Node000003_Node000011" class="edge">
<title>Node3&#45;&gt;Node11</title>
<g id="a_edge15_Node000003_Node000011"><a xlink:title=" ">
<path fill="none" stroke="#63b8ff" d="M272.08,-119.73C290.25,-98.63 325.88,-60.68 364,-39 367.28,-37.13 370.72,-35.4 374.26,-33.79"/>
<polygon fill="#63b8ff" stroke="#63b8ff" points="375.91,-36.89 383.78,-29.81 373.21,-30.43 375.91,-36.89"/>
</a>
</g>
</g>
<!-- Node5 -->
<g id="Node000005" class="node">
<title>Node5</title>
<g id="a_Node000005"><a xlink:href="classfinancesim_1_1AccountBase.html#a92e881e34f26e1b4da68365d6dccdb7b" target="_top" xlink:title=" ">
<polygon fill="white" stroke="#666666" points="876,-149 737,-149 737,-119 876,-119 876,-149"/>
<text text-anchor="start" x="745" y="-137" font-family="Helvetica,sans-Serif" font-size="10.00">financesim::AccountBase</text>
<text text-anchor="middle" x="806.5" y="-126" font-family="Helvetica,sans-Serif" font-size="10.00">::emit</text>
</a>
</g>
</g>
<!-- Node4&#45;&gt;Node5 -->
<g id="edge5_Node000004_Node000005" class="edge">
<title>Node4&#45;&gt;Node5</title>
<g id="a_edge5_Node000004_Node000005"><a xlink:title=" ">
<path fill="none" stroke="#63b8ff" d="M508.2,-174.03C560.22,-184.24 636.12,-193.65 701,-180 725.28,-174.89 750.8,-163.78 770.54,-153.76"/>
<polygon fill="#63b8ff" stroke="#63b8ff" points="772.21,-156.84 779.46,-149.11 768.98,-150.63 772.21,-156.84"/>
</a>
</g>
</g>
<!-- Node7 -->
<g id="Node000007" class="node">
<title>Node7</title>
<g id="a_Node000007"><a xlink:href="classfinancesim_1_1AccountBase.html#abfa43f46290e17fa7ce5b26e8df444cd" target="_top" xlink:title="Withdraw funds from the account.">
<polygon fill="white" stroke="#666666" points="701,-171 562,-171 562,-141 701,-141 701,-171"/>
<text text-anchor="start" x="570" y="-159" font-family="Helvetica,sans-Serif" font-size="10.00">financesim::AccountBase</text>
<text text-anchor="middle" x="631.5" y="-148" font-family="Helvetica,sans-Serif" font-size="10.00">::withdraw</text>
</a>
</g>
</g>
<!-- Node4&#45;&gt;Node7 -->
<g id="edge8_Node000004_Node000007" class="edge">
<title>Node4&#45;&gt;Node7</title>
<g id="a_edge8_Node000004_Node000007"><a xlink:title=" ">
<path fill="none" stroke="#63b8ff" d="M514.7,-157.88C526.71,-157.69 539.28,-157.48 551.54,-157.28"/>
<polygon fill="#63b8ff" stroke="#63b8ff" points="551.8,-160.78 561.74,-157.12 551.69,-153.78 551.8,-160.78"/>
</a>
</g>
</g>
<!-- Node5&#45;&gt;Node5 -->
<g id="edge6_Node000005_Node000005" class="edge">
<title>Node5&#45;&gt;Node5</title>
<g id="a_edge6_Node000005_Node000005"><a xlink:title=" ">
<path fill="none" stroke="#63b8ff" d="M777.32,-149.28C770.84,-158.41 780.56,-167 806.5,-167 821.9,-167 831.59,-163.97 835.56,-159.6"/>
<polygon fill="#63b8ff" stroke="#63b8ff" points="839.06,-159.32 835.68,-149.28 832.06,-159.23 839.06,-159.32"/>
</a>
</g>
</g>
<!-- Node6 -->
<g id="Node000006" class="node">
<title>Node6</title>
<g id="a_Node000006"><a xlink:href="classfinancesim_1_1EventBus.html#a94b4690f4c8a00f2e9fd395bfc7a3b4d" target="_top" xlink:title="Publish an event to all subscribers.">
<polygon fill="white" stroke="#666666" points="1034,-149 912,-149 912,-119 1034,-119 1034,-149"/>
<text text-anchor="start" x="920" y="-137" font-family="Helvetica,sans-Serif" font-size="10.00">financesim::EventBus</text>
<text text-anchor="middle" x="973" y="-126" font-family="Helvetica,sans-Serif" font-size="10.00">::publish</text>
</a>
</g>
</g>
<!-- Node5&#45;&gt;Node6 -->
<g id="edge7_Node000005_Node000006" class="edge">
<title>Node5&#45;&gt;Node6</title>
<g id="a_edge7_Node000005_Node000006"><a xlink:title=" ">
<path fill="none" stroke="#63b8ff" d="M876.31,-134C884.7,-134 893.28,-134 901.68,-134"/>
<polygon fill="#63b8ff" stroke="#63b8ff" points="901.83,-137.5 911.83,-134 901.83,-130.5 901.83,-137.5"/>
</a>
</g>
</g>
<!-- Node7&#45;&gt;Node5 -->
<g id="edge9_Node000007_Node000005" class="edge">
<title>Node7&#45;&gt;Node5</title>
<g id="a_edge9_Node000007_Node000005"><a xlink:title=" ">
<path fill="none" stroke="#63b8ff" d="M701.37,-147.24C709.77,-146.17 718.4,-145.08 726.92,-143.99"/>
<polygon fill="#63b8ff" stroke="#63b8ff" points="727.39,-147.46 736.87,-142.73 726.5,-140.52 727.39,-147.46"/>
</a>
</g>
</g>
<!-- Node8&#45;&gt;Node5 -->
<g id="edge13_Node000008_Node000005" class="edge">
<title>Node8&#45;&gt;Node5</title>
<g id="a_edge13_Node000008_Node000005"><a xlink:title=" ">
<path fill="none" stroke="#63b8ff" d="M514.89,-115.41C575.34,-119.27 663.23,-124.9 726.51,-128.95"/>
<polygon fill="#63b8ff" stroke="#63b8ff" points="726.64,-132.46 736.84,-129.61 727.09,-125.48 726.64,-132.46"/>
</a>
</g>
</g>
<!-- Node9 -->
<g id="Node000009" class="node">
<title>Node9</title>
<g id="a_Node000009"><a xlink:href="classfinancesim_1_1AccountBase.html#a71367336b1187fc22ec0d52e456b8e8a" target="_top" xlink:title="Deposit funds into the account.">
<polygon fill="white" stroke="#666666" points="701,-85 562,-85 562,-55 701,-55 701,-85"/>
<text text-anchor="start" x="570" y="-73" font-family="Helvetica,sans-Serif" font-size="10.00">financesim::AccountBase</text>
<text text-anchor="middle" x="631.5" y="-62" font-family="Helvetica,sans-Serif" font-size="10.00">::deposit</text>
</a>
</g>
</g>
<!-- Node8&#45;&gt;Node9 -->
<g id="edge11_Node000008_Node000009" class="edge">
<title>Node8&#45;&gt;Node9</title>
<g id="a_edge11_Node000008_Node000009"><a xlink:title=" ">
<path fill="none" stroke="#63b8ff" d="M513.65,-95.97C526.44,-93.12 539.9,-90.13 552.96,-87.23"/>
<polygon fill="#63b8ff" stroke="#63b8ff" points="553.85,-90.62 562.85,-85.03 552.33,-83.78 553.85,-90.62"/>
</a>
</g>
</g>
<!-- Node9&#45;&gt;Node5 -->
<g id="edge12_Node000009_Node000005" class="edge">
<title>Node9&#45;&gt;Node5</title>
<g id="a_edge12_Node000009_Node000005"><a xlink:title=" ">
<path fill="none" stroke="#63b8ff" d="M673.06,-85.01C697.59,-94.08 729.07,-105.72 755.18,-115.38"/>
<polygon fill="#63b8ff" stroke="#63b8ff" points="754.3,-118.79 764.89,-118.98 756.73,-112.23 754.3,-118.79"/>
</a>
</g>
</g>
</g>
</svg>
