<?xml version="1.0" encoding="UTF-8" standalone="no"?>
<!DOCTYPE svg PUBLIC "-//W3C//DTD SVG 1.1//EN"
 "http://www.w3.org/Graphics/SVG/1.1/DTD/svg11.dtd">
<!-- Generated by graphviz version 2.43.0 (0)
 -->
<!-- Title: financesim::EventBus::publish Pages: 1 -->
<svg width="1055pt" height="428pt"
 viewBox="0.00 0.00 1055.00 428.00" xmlns="http://www.w3.org/2000/svg" xmlns:xlink="http://www.w3.org/1999/xlink">
<g id="graph0" class="graph" transform="scale(1 1) rotate(0) translate(4 424)">
<title>financesim::EventBus::publish</title>
<!-- Node1 -->
<g id="Node000001" class="node">
<title>Node1</title>
<g id="a_Node000001"><a xlink:title="Publish an event to all subscribers.">
<polygon fill="#999999" stroke="#666666" points="1047,-162 925,-162 925,-132 1047,-132 1047,-162"/>
<text text-anchor="start" x="933" y="-150" font-family="Helvetica,sans-Serif" font-size="10.00">financesim::EventBus</text>
<text text-anchor="middle" x="986" y="-139" font-family="Helvetica,sans-Serif" font-size="10.00">::publish</text>
</a>
</g>
</g>
<!-- Node2 -->
<g id="Node000002" class="node">
<title>Node2</title>
<g id="a_Node000002"><a xlink:href="classfinancesim_1_1AccountBase.html#a92e881e34f26e1b4da68365d6dccdb7b" target="_top" xlink:title=" ">
<polygon fill="white" stroke="#666666" points="885,-294 746,-294 746,-264 885,-264 885,-294"/>
<text text-anchor="start" x="754" y="-282" font-family="Helvetica,sans-Serif" font-size="10.00">financesim::AccountBase</text>
<text text-anchor="middle" x="815.5" y="-271" font-family="Helvetica,sans-Serif" font-size="10.00">::emit</text>
</a>
</g>
</g>
<!-- Node1&#45;&gt;Node2 -->
<g id="edge1_Node000001_Node000002" class="edge">
<title>Node1&#45;&gt;Node2</title>
<g id="a_edge1_Node000001_Node000002"><a xlink:title=" ">
<path fill="none" stroke="#63b8ff" d="M969.72,-170.51C952.73,-194.89 923.16,-232.53 889,-255 883.79,-258.43 878.06,-261.4 872.16,-263.98"/>
<polygon fill="#63b8ff" stroke="#63b8ff" points="972.65,-172.42 975.39,-162.18 966.87,-168.48 972.65,-172.42"/>
</a>
</g>
</g>
<!-- Node13 -->
<g id="Node000013" class="node">
<title>Node13</title>
<g id="a_Node000013"><a xlink:href="classfinancesim_1_1AssetsBase.html#ac1bc828ee79dadd35b933fe4a2f11ceb" target="_top" xlink:title=" ">
<polygon fill="white" stroke="#666666" points="881.5,-228 749.5,-228 749.5,-198 881.5,-198 881.5,-228"/>
<text text-anchor="start" x="757.5" y="-216" font-family="Helvetica,sans-Serif" font-size="10.00">financesim::AssetsBase</text>
<text text-anchor="middle" x="815.5" y="-205" font-family="Helvetica,sans-Serif" font-size="10.00">::emit</text>
</a>
</g>
</g>
<!-- Node1&#45;&gt;Node13 -->
<g id="edge22_Node000001_Node000013" class="edge">
<title>Node1&#45;&gt;Node13</title>
<g id="a_edge22_Node000001_Node000013"><a xlink:title=" ">
<path fill="none" stroke="#63b8ff" d="M942.97,-166.39C926.31,-173.82 906.89,-182.14 889,-189 881.08,-192.04 872.58,-195.06 864.3,-197.88"/>
<polygon fill="#63b8ff" stroke="#63b8ff" points="944.75,-169.44 952.43,-162.15 941.88,-163.05 944.75,-169.44"/>
</a>
</g>
</g>
<!-- Node14 -->
<g id="Node000014" class="node">
<title>Node14</title>
<g id="a_Node000014"><a xlink:href="classfinancesim_1_1ExpensesBase.html#af419fcf4f6544508e019c4c8c33302fb" target="_top" xlink:title=" ">
<polygon fill="white" stroke="#666666" points="888.5,-162 742.5,-162 742.5,-132 888.5,-132 888.5,-162"/>
<text text-anchor="start" x="750.5" y="-150" font-family="Helvetica,sans-Serif" font-size="10.00">financesim::ExpensesBase</text>
<text text-anchor="middle" x="815.5" y="-139" font-family="Helvetica,sans-Serif" font-size="10.00">::emit</text>
</a>
</g>
</g>
<!-- Node1&#45;&gt;Node14 -->
<g id="edge24_Node000001_Node000014" class="edge">
<title>Node1&#45;&gt;Node14</title>
<g id="a_edge24_Node000001_Node000014"><a xlink:title=" ">
<path fill="none" stroke="#63b8ff" d="M914.63,-147C906,-147 897.17,-147 888.51,-147"/>
<polygon fill="#63b8ff" stroke="#63b8ff" points="914.64,-150.5 924.64,-147 914.64,-143.5 914.64,-150.5"/>
</a>
</g>
</g>
<!-- Node15 -->
<g id="Node000015" class="node">
<title>Node15</title>
<g id="a_Node000015"><a xlink:href="classfinancesim_1_1IncomeBase.html#a2b57b169d37d3049fc9010ed0e366dd3" target="_top" xlink:title=" ">
<polygon fill="white" stroke="#666666" points="883.5,-96 747.5,-96 747.5,-66 883.5,-66 883.5,-96"/>
<text text-anchor="start" x="755.5" y="-84" font-family="Helvetica,sans-Serif" font-size="10.00">financesim::IncomeBase</text>
<text text-anchor="middle" x="815.5" y="-73" font-family="Helvetica,sans-Serif" font-size="10.00">::emit</text>
</a>
</g>
</g>
<!-- Node1&#45;&gt;Node15 -->
<g id="edge26_Node000001_Node000015" class="edge">
<title>Node1&#45;&gt;Node15</title>
<g id="a_edge26_Node000001_Node000015"><a xlink:title=" ">
<path fill="none" stroke="#63b8ff" d="M936.7,-128.08C910.77,-117.92 879.24,-105.57 854.98,-96.07"/>
<polygon fill="#63b8ff" stroke="#63b8ff" points="935.75,-131.47 946.34,-131.86 938.31,-124.95 935.75,-131.47"/>
</a>
</g>
</g>
<!-- Node17 -->
<g id="Node000017" class="node">
<title>Node17</title>
<g id="a_Node000017"><a xlink:href="classfinancesim_1_1LiabilitiesBase.html#ac5e3b0044f5865b12132b5a5f7c2b630" target="_top" xlink:title=" ">
<polygon fill="white" stroke="#666666" points="889,-30 742,-30 742,0 889,0 889,-30"/>
<text text-anchor="start" x="750" y="-18" font-family="Helvetica,sans-Serif" font-size="10.00">financesim::LiabilitiesBase</text>
<text text-anchor="middle" x="815.5" y="-7" font-family="Helvetica,sans-Serif" font-size="10.00">::emit</text>
</a>
</g>
</g>
<!-- Node1&#45;&gt;Node17 -->
<g id="edge29_Node000001_Node000017" class="edge">
<title>Node1&#45;&gt;Node17</title>
<g id="a_edge29_Node000001_Node000017"><a xlink:title=" ">
<path fill="none" stroke="#63b8ff" d="M963.84,-124.45C945.18,-105.25 916.72,-77.6 889,-57 875.57,-47.02 859.58,-37.53 846.03,-30.11"/>
<polygon fill="#63b8ff" stroke="#63b8ff" points="961.51,-127.08 970.96,-131.86 966.55,-122.23 961.51,-127.08"/>
</a>
</g>
</g>
<!-- Node2&#45;&gt;Node2 -->
<g id="edge12_Node000002_Node000002" class="edge">
<title>Node2&#45;&gt;Node2</title>
<g id="a_edge12_Node000002_Node000002"><a xlink:title=" ">
<path fill="none" stroke="#63b8ff" d="M845.26,-304.6C841.19,-308.97 831.27,-312 815.5,-312 788.94,-312 778.98,-303.41 785.62,-294.28"/>
<polygon fill="#63b8ff" stroke="#63b8ff" points="848.76,-304.32 845.38,-294.28 841.76,-304.23 848.76,-304.32"/>
</a>
</g>
</g>
<!-- Node3 -->
<g id="Node000003" class="node">
<title>Node3</title>
<g id="a_Node000003"><a xlink:href="classfinancesim_1_1SavingsAccount.html#a99f2df8b57924c01873a70bc567b77e2" target="_top" xlink:title=" ">
<polygon fill="white" stroke="#666666" points="531,-352 378,-352 378,-322 531,-322 531,-352"/>
<text text-anchor="start" x="386" y="-340" font-family="Helvetica,sans-Serif" font-size="10.00">financesim::SavingsAccount</text>
<text text-anchor="middle" x="454.5" y="-329" font-family="Helvetica,sans-Serif" font-size="10.00">::accrue_interest_up_to</text>
</a>
</g>
</g>
<!-- Node2&#45;&gt;Node3 -->
<g id="edge2_Node000002_Node000003" class="edge">
<title>Node2&#45;&gt;Node3</title>
<g id="a_edge2_Node000002_Node000003"><a xlink:title=" ">
<path fill="none" stroke="#63b8ff" d="M781.38,-298.95C760.54,-310.37 732.63,-323.66 706,-330 648.44,-343.7 581.34,-344.82 531.08,-342.86"/>
<polygon fill="#63b8ff" stroke="#63b8ff" points="783.14,-301.98 790.15,-294.03 779.71,-295.87 783.14,-301.98"/>
</a>
</g>
</g>
<!-- Node4 -->
<g id="Node000004" class="node">
<title>Node4</title>
<g id="a_Node000004"><a xlink:href="classfinancesim_1_1SavingsAccount.html#aa3de54a2c49d7f903bf9d6f963c338ed" target="_top" xlink:title="Called when an expense event is routed to this account.">
<polygon fill="white" stroke="#666666" points="342,-245 189,-245 189,-215 342,-215 342,-245"/>
<text text-anchor="start" x="197" y="-233" font-family="Helvetica,sans-Serif" font-size="10.00">financesim::SavingsAccount</text>
<text text-anchor="middle" x="265.5" y="-222" font-family="Helvetica,sans-Serif" font-size="10.00">::on_expense</text>
</a>
</g>
</g>
<!-- Node2&#45;&gt;Node4 -->
<g id="edge16_Node000002_Node000004" class="edge">
<title>Node2&#45;&gt;Node4</title>
<g id="a_edge16_Node000002_Node000004"><a xlink:title=" ">
<path fill="none" stroke="#63b8ff" d="M735.79,-270.82C678.92,-265 600.24,-257.17 531,-251 467.34,-245.33 394.99,-239.64 342.07,-235.61"/>
<polygon fill="#63b8ff" stroke="#63b8ff" points="735.49,-274.3 745.79,-271.84 736.2,-267.34 735.49,-274.3"/>
</a>
</g>
</g>
<!-- Node5 -->
<g id="Node000005" class="node">
<title>Node5</title>
<g id="a_Node000005"><a xlink:href="classfinancesim_1_1SavingsAccount.html#a7b2be7631555d99b13b517064c82ae0a" target="_top" xlink:title="Called when an income event is routed to this account.">
<polygon fill="white" stroke="#666666" points="342,-352 189,-352 189,-322 342,-322 342,-352"/>
<text text-anchor="start" x="197" y="-340" font-family="Helvetica,sans-Serif" font-size="10.00">financesim::SavingsAccount</text>
<text text-anchor="middle" x="265.5" y="-329" font-family="Helvetica,sans-Serif" font-size="10.00">::on_income</text>
</a>
</g>
</g>
<!-- Node2&#45;&gt;Node5 -->
<g id="edge18_Node000002_Node000005" class="edge">
<title>Node2&#45;&gt;Node5</title>
<g id="a_edge18_Node000002_Node000005"><a xlink:title=" ">
<path fill="none" stroke="#63b8ff" d="M789.6,-300.75C768.79,-317.5 737.54,-339.51 706,-350 577.61,-392.7 416.32,-370.04 329.23,-352.06"/>
<polygon fill="#63b8ff" stroke="#63b8ff" points="792.09,-303.23 797.57,-294.17 787.63,-297.83 792.09,-303.23"/>
</a>
</g>
</g>
<!-- Node6 -->
<g id="Node000006" class="node">
<title>Node6</title>
<g id="a_Node000006"><a xlink:href="classfinancesim_1_1SavingsAccount.html#afe0c76090821bb03548256193aa82eda" target="_top" xlink:title=" ">
<polygon fill="white" stroke="#666666" points="342,-420 189,-420 189,-390 342,-390 342,-420"/>
<text text-anchor="start" x="197" y="-408" font-family="Helvetica,sans-Serif" font-size="10.00">financesim::SavingsAccount</text>
<text text-anchor="middle" x="265.5" y="-397" font-family="Helvetica,sans-Serif" font-size="10.00">::update</text>
</a>
</g>
</g>
<!-- Node2&#45;&gt;Node6 -->
<g id="edge19_Node000002_Node000006" class="edge">
<title>Node2&#45;&gt;Node6</title>
<g id="a_edge19_Node000002_Node000006"><a xlink:title=" ">
<path fill="none" stroke="#63b8ff" d="M796.27,-302.3C776.72,-325.34 743.4,-359.35 706,-375 586.41,-425.03 432.51,-421.96 342.16,-414.18"/>
<polygon fill="#63b8ff" stroke="#63b8ff" points="799.16,-304.3 802.83,-294.37 793.76,-299.85 799.16,-304.3"/>
</a>
</g>
</g>
<!-- Node7 -->
<g id="Node000007" class="node">
<title>Node7</title>
<g id="a_Node000007"><a xlink:href="classfinancesim_1_1AccountBase.html#a71367336b1187fc22ec0d52e456b8e8a" target="_top" xlink:title="Deposit funds into the account.">
<polygon fill="white" stroke="#666666" points="706,-321 567,-321 567,-291 706,-291 706,-321"/>
<text text-anchor="start" x="575" y="-309" font-family="Helvetica,sans-Serif" font-size="10.00">financesim::AccountBase</text>
<text text-anchor="middle" x="636.5" y="-298" font-family="Helvetica,sans-Serif" font-size="10.00">::deposit</text>
</a>
</g>
</g>
<!-- Node2&#45;&gt;Node7 -->
<g id="edge6_Node000002_Node000007" class="edge">
<title>Node2&#45;&gt;Node7</title>
<g id="a_edge6_Node000002_Node000007"><a xlink:title=" ">
<path fill="none" stroke="#63b8ff" d="M735.64,-291.03C725.81,-292.53 715.81,-294.05 706.15,-295.53"/>
<polygon fill="#63b8ff" stroke="#63b8ff" points="736.46,-294.45 745.81,-289.48 735.4,-287.53 736.46,-294.45"/>
</a>
</g>
</g>
<!-- Node8 -->
<g id="Node000008" class="node">
<title>Node8</title>
<g id="a_Node000008"><a xlink:href="classfinancesim_1_1AccountBase.html#a5a7f0f423a2fa6193c44b3c118c5c359" target="_top" xlink:title="Called when an income event is routed to this account.">
<polygon fill="white" stroke="#666666" points="524,-290 385,-290 385,-260 524,-260 524,-290"/>
<text text-anchor="start" x="393" y="-278" font-family="Helvetica,sans-Serif" font-size="10.00">financesim::AccountBase</text>
<text text-anchor="middle" x="454.5" y="-267" font-family="Helvetica,sans-Serif" font-size="10.00">::on_income</text>
</a>
</g>
</g>
<!-- Node2&#45;&gt;Node8 -->
<g id="edge17_Node000002_Node000008" class="edge">
<title>Node2&#45;&gt;Node8</title>
<g id="a_edge17_Node000002_Node000008"><a xlink:title=" ">
<path fill="none" stroke="#63b8ff" d="M735.38,-278.12C672.12,-277.41 584.36,-276.44 524.06,-275.76"/>
<polygon fill="#63b8ff" stroke="#63b8ff" points="735.67,-281.62 745.71,-278.23 735.75,-274.62 735.67,-281.62"/>
</a>
</g>
</g>
<!-- Node11 -->
<g id="Node000011" class="node">
<title>Node11</title>
<g id="a_Node000011"><a xlink:href="classfinancesim_1_1AccountBase.html#ab551367fd2cc985c98c0aadfdc7fb4e1" target="_top" xlink:title="Called when an expense event is routed to this account.">
<polygon fill="white" stroke="#666666" points="524,-197 385,-197 385,-167 524,-167 524,-197"/>
<text text-anchor="start" x="393" y="-185" font-family="Helvetica,sans-Serif" font-size="10.00">financesim::AccountBase</text>
<text text-anchor="middle" x="454.5" y="-174" font-family="Helvetica,sans-Serif" font-size="10.00">::on_expense</text>
</a>
</g>
</g>
<!-- Node2&#45;&gt;Node11 -->
<g id="edge13_Node000002_Node000011" class="edge">
<title>Node2&#45;&gt;Node11</title>
<g id="a_edge13_Node000002_Node000011"><a xlink:title=" ">
<path fill="none" stroke="#63b8ff" d="M745.45,-258.05C744.25,-257.08 743.1,-256.06 742,-255 708.91,-223.07 743.75,-184.26 706,-158 639.65,-111.85 538.38,-144.93 487.31,-166.84"/>
<polygon fill="#63b8ff" stroke="#63b8ff" points="743.63,-261.05 753.86,-263.84 747.6,-255.29 743.63,-261.05"/>
</a>
</g>
</g>
<!-- Node12 -->
<g id="Node000012" class="node">
<title>Node12</title>
<g id="a_Node000012"><a xlink:href="classfinancesim_1_1AccountBase.html#abfa43f46290e17fa7ce5b26e8df444cd" target="_top" xlink:title="Withdraw funds from the account.">
<polygon fill="white" stroke="#666666" points="706,-197 567,-197 567,-167 706,-167 706,-197"/>
<text text-anchor="start" x="575" y="-185" font-family="Helvetica,sans-Serif" font-size="10.00">financesim::AccountBase</text>
<text text-anchor="middle" x="636.5" y="-174" font-family="Helvetica,sans-Serif" font-size="10.00">::withdraw</text>
</a>
</g>
</g>
<!-- Node2&#45;&gt;Node12 -->
<g id="edge20_Node000002_Node000012" class="edge">
<title>Node2&#45;&gt;Node12</title>
<g id="a_edge20_Node000002_Node000012"><a xlink:title=" ">
<path fill="none" stroke="#63b8ff" d="M748.72,-259.18C746.4,-257.87 744.15,-256.48 742,-255 721.18,-240.68 726.22,-226.15 706,-211 698.76,-205.58 690.36,-200.96 681.98,-197.1"/>
<polygon fill="#63b8ff" stroke="#63b8ff" points="747.45,-262.46 757.95,-263.85 750.61,-256.22 747.45,-262.46"/>
</a>
</g>
</g>
<!-- Node3&#45;&gt;Node4 -->
<g id="edge3_Node000003_Node000004" class="edge">
<title>Node3&#45;&gt;Node4</title>
<g id="a_edge3_Node000003_Node000004"><a xlink:title=" ">
<path fill="none" stroke="#63b8ff" d="M412.69,-317.28C401.35,-311.58 389.1,-305.21 378,-299 346.81,-281.55 311.94,-259.55 289.64,-245.14"/>
<polygon fill="#63b8ff" stroke="#63b8ff" points="411.44,-320.57 421.95,-321.89 414.56,-314.3 411.44,-320.57"/>
</a>
</g>
</g>
<!-- Node3&#45;&gt;Node5 -->
<g id="edge4_Node000003_Node000005" class="edge">
<title>Node3&#45;&gt;Node5</title>
<g id="a_edge4_Node000003_Node000005"><a xlink:title=" ">
<path fill="none" stroke="#63b8ff" d="M367.7,-337C359.23,-337 350.67,-337 342.3,-337"/>
<polygon fill="#63b8ff" stroke="#63b8ff" points="367.98,-340.5 377.98,-337 367.98,-333.5 367.98,-340.5"/>
</a>
</g>
</g>
<!-- Node3&#45;&gt;Node6 -->
<g id="edge5_Node000003_Node000006" class="edge">
<title>Node3&#45;&gt;Node6</title>
<g id="a_edge5_Node000003_Node000006"><a xlink:title=" ">
<path fill="none" stroke="#63b8ff" d="M402.23,-355.64C372.56,-366.43 335.7,-379.84 307.89,-389.95"/>
<polygon fill="#63b8ff" stroke="#63b8ff" points="403.8,-358.8 412,-352.09 401.4,-352.22 403.8,-358.8"/>
</a>
</g>
</g>
<!-- Node7&#45;&gt;Node3 -->
<g id="edge7_Node000007_Node000003" class="edge">
<title>Node7&#45;&gt;Node3</title>
<g id="a_edge7_Node000007_Node000003"><a xlink:title=" ">
<path fill="none" stroke="#63b8ff" d="M556.94,-319.53C548.36,-321.01 539.63,-322.51 531.08,-323.98"/>
<polygon fill="#63b8ff" stroke="#63b8ff" points="557.68,-322.95 566.94,-317.81 556.49,-316.06 557.68,-322.95"/>
</a>
</g>
</g>
<!-- Node7&#45;&gt;Node8 -->
<g id="edge8_Node000007_Node000008" class="edge">
<title>Node7&#45;&gt;Node8</title>
<g id="a_edge8_Node000007_Node000008"><a xlink:title=" ">
<path fill="none" stroke="#63b8ff" d="M556.98,-292.48C546.06,-290.6 534.9,-288.67 524.17,-286.83"/>
<polygon fill="#63b8ff" stroke="#63b8ff" points="556.49,-295.94 566.94,-294.19 557.68,-289.05 556.49,-295.94"/>
</a>
</g>
</g>
<!-- Node8&#45;&gt;Node5 -->
<g id="edge11_Node000008_Node000005" class="edge">
<title>Node8&#45;&gt;Node5</title>
<g id="a_edge11_Node000008_Node000005"><a xlink:title=" ">
<path fill="none" stroke="#63b8ff" d="M398.73,-293.16C371.17,-302.3 338.15,-313.25 312,-321.91"/>
<polygon fill="#63b8ff" stroke="#63b8ff" points="399.84,-296.48 408.23,-290.01 397.64,-289.83 399.84,-296.48"/>
</a>
</g>
</g>
<!-- Node9 -->
<g id="Node000009" class="node">
<title>Node9</title>
<g id="a_Node000009"><a xlink:href="classfinancesim_1_1AccountBase.html#af3f65334454741897f5b010c01ac9291" target="_top" xlink:title=" ">
<polygon fill="white" stroke="#666666" points="335,-197 196,-197 196,-167 335,-167 335,-197"/>
<text text-anchor="start" x="204" y="-185" font-family="Helvetica,sans-Serif" font-size="10.00">financesim::AccountBase</text>
<text text-anchor="middle" x="265.5" y="-174" font-family="Helvetica,sans-Serif" font-size="10.00">::initialize</text>
</a>
</g>
</g>
<!-- Node8&#45;&gt;Node9 -->
<g id="edge9_Node000008_Node000009" class="edge">
<title>Node8&#45;&gt;Node9</title>
<g id="a_edge9_Node000008_Node000009"><a xlink:title=" ">
<path fill="none" stroke="#63b8ff" d="M424.1,-254.01C402.25,-239.12 371.27,-219.46 342,-206 334.88,-202.72 327.18,-199.72 319.53,-197.02"/>
<polygon fill="#63b8ff" stroke="#63b8ff" points="422.37,-257.07 432.59,-259.87 426.35,-251.31 422.37,-257.07"/>
</a>
</g>
</g>
<!-- Node10 -->
<g id="Node000010" class="node">
<title>Node10</title>
<g id="a_Node000010"><a xlink:href="classfinancesim_1_1SavingsAccount.html#a600cb6b50a2b708865e749567937daf6" target="_top" xlink:title=" ">
<polygon fill="white" stroke="#666666" points="153,-197 0,-197 0,-167 153,-167 153,-197"/>
<text text-anchor="start" x="8" y="-185" font-family="Helvetica,sans-Serif" font-size="10.00">financesim::SavingsAccount</text>
<text text-anchor="middle" x="76.5" y="-174" font-family="Helvetica,sans-Serif" font-size="10.00">::initialize</text>
</a>
</g>
</g>
<!-- Node9&#45;&gt;Node10 -->
<g id="edge10_Node000009_Node000010" class="edge">
<title>Node9&#45;&gt;Node10</title>
<g id="a_edge10_Node000009_Node000010"><a xlink:title=" ">
<path fill="none" stroke="#63b8ff" d="M185.74,-182C175,-182 164,-182 153.32,-182"/>
<polygon fill="#63b8ff" stroke="#63b8ff" points="185.93,-185.5 195.93,-182 185.93,-178.5 185.93,-185.5"/>
</a>
</g>
</g>
<!-- Node11&#45;&gt;Node4 -->
<g id="edge15_Node000011_Node000004" class="edge">
<title>Node11&#45;&gt;Node4</title>
<g id="a_edge15_Node000011_Node000004"><a xlink:title=" ">
<path fill="none" stroke="#63b8ff" d="M385.01,-199.58C365.3,-204.64 343.99,-210.11 324.95,-215"/>
<polygon fill="#63b8ff" stroke="#63b8ff" points="386.03,-202.93 394.85,-197.06 384.29,-196.15 386.03,-202.93"/>
</a>
</g>
</g>
<!-- Node11&#45;&gt;Node9 -->
<g id="edge14_Node000011_Node000009" class="edge">
<title>Node11&#45;&gt;Node9</title>
<g id="a_edge14_Node000011_Node000009"><a xlink:title=" ">
<path fill="none" stroke="#63b8ff" d="M374.9,-182C361.67,-182 348.02,-182 335.06,-182"/>
<polygon fill="#63b8ff" stroke="#63b8ff" points="374.93,-185.5 384.93,-182 374.93,-178.5 374.93,-185.5"/>
</a>
</g>
</g>
<!-- Node12&#45;&gt;Node11 -->
<g id="edge21_Node000012_Node000011" class="edge">
<title>Node12&#45;&gt;Node11</title>
<g id="a_edge21_Node000012_Node000011"><a xlink:title=" ">
<path fill="none" stroke="#63b8ff" d="M556.65,-182C545.83,-182 534.79,-182 524.17,-182"/>
<polygon fill="#63b8ff" stroke="#63b8ff" points="556.94,-185.5 566.94,-182 556.94,-178.5 556.94,-185.5"/>
</a>
</g>
</g>
<!-- Node13&#45;&gt;Node13 -->
<g id="edge23_Node000013_Node000013" class="edge">
<title>Node13&#45;&gt;Node13</title>
<g id="a_edge23_Node000013_Node000013"><a xlink:title=" ">
<path fill="none" stroke="#63b8ff" d="M845.26,-238.6C841.19,-242.97 831.27,-246 815.5,-246 788.94,-246 778.98,-237.41 785.62,-228.28"/>
<polygon fill="#63b8ff" stroke="#63b8ff" points="848.76,-238.32 845.38,-228.28 841.76,-238.23 848.76,-238.32"/>
</a>
</g>
</g>
<!-- Node14&#45;&gt;Node14 -->
<g id="edge25_Node000014_Node000014" class="edge">
<title>Node14&#45;&gt;Node14</title>
<g id="a_edge25_Node000014_Node000014"><a xlink:title=" ">
<path fill="none" stroke="#63b8ff" d="M845.26,-172.6C841.19,-176.97 831.27,-180 815.5,-180 788.94,-180 778.98,-171.41 785.62,-162.28"/>
<polygon fill="#63b8ff" stroke="#63b8ff" points="848.76,-172.32 845.38,-162.28 841.76,-172.23 848.76,-172.32"/>
</a>
</g>
</g>
<!-- Node15&#45;&gt;Node15 -->
<g id="edge27_Node000015_Node000015" class="edge">
<title>Node15&#45;&gt;Node15</title>
<g id="a_edge27_Node000015_Node000015"><a xlink:title=" ">
<path fill="none" stroke="#63b8ff" d="M845.26,-106.6C841.19,-110.97 831.27,-114 815.5,-114 788.94,-114 778.98,-105.41 785.62,-96.28"/>
<polygon fill="#63b8ff" stroke="#63b8ff" points="848.76,-106.32 845.38,-96.28 841.76,-106.23 848.76,-106.32"/>
</a>
</g>
</g>
<!-- Node16 -->
<g id="Node000016" class="node">
<title>Node16</title>
<g id="a_Node000016"><a xlink:href="classfinancesim_1_1CareerJob.html#a12aab3dfd0f8774d5899c6cd2ab8af35" target="_top" xlink:title=" ">
<polygon fill="white" stroke="#666666" points="698,-96 575,-96 575,-66 698,-66 698,-96"/>
<text text-anchor="start" x="583" y="-84" font-family="Helvetica,sans-Serif" font-size="10.00">financesim::CareerJob</text>
<text text-anchor="middle" x="636.5" y="-73" font-family="Helvetica,sans-Serif" font-size="10.00">::update</text>
</a>
</g>
</g>
<!-- Node15&#45;&gt;Node16 -->
<g id="edge28_Node000015_Node000016" class="edge">
<title>Node15&#45;&gt;Node16</title>
<g id="a_edge28_Node000015_Node000016"><a xlink:title=" ">
<path fill="none" stroke="#63b8ff" d="M737.01,-81C724.02,-81 710.71,-81 698.23,-81"/>
<polygon fill="#63b8ff" stroke="#63b8ff" points="737.33,-84.5 747.33,-81 737.33,-77.5 737.33,-84.5"/>
</a>
</g>
</g>
<!-- Node17&#45;&gt;Node17 -->
<g id="edge30_Node000017_Node000017" class="edge">
<title>Node17&#45;&gt;Node17</title>
<g id="a_edge30_Node000017_Node000017"><a xlink:title=" ">
<path fill="none" stroke="#63b8ff" d="M845.26,-40.6C841.19,-44.97 831.27,-48 815.5,-48 788.94,-48 778.98,-39.41 785.62,-30.28"/>
<polygon fill="#63b8ff" stroke="#63b8ff" points="848.76,-40.32 845.38,-30.28 841.76,-40.23 848.76,-40.32"/>
</a>
</g>
</g>
</g>
</svg>
