<?xml version="1.0" encoding="UTF-8" standalone="no"?>
<!DOCTYPE svg PUBLIC "-//W3C//DTD SVG 1.1//EN"
 "http://www.w3.org/Graphics/SVG/1.1/DTD/svg11.dtd">
<!-- Generated by graphviz version 2.43.0 (0)
 -->
<!-- Title: financesim::CareerJob::update Pages: 1 -->
<svg width="461pt" height="56pt"
 viewBox="0.00 0.00 461.00 56.00" xmlns="http://www.w3.org/2000/svg" xmlns:xlink="http://www.w3.org/1999/xlink">
<g id="graph0" class="graph" transform="scale(1 1) rotate(0) translate(4 52)">
<title>financesim::CareerJob::update</title>
<!-- Node1 -->
<g id="Node000001" class="node">
<title>Node1</title>
<g id="a_Node000001"><a xlink:title=" ">
<polygon fill="#999999" stroke="#666666" points="123,-30 0,-30 0,0 123,0 123,-30"/>
<text text-anchor="start" x="8" y="-18" font-family="Helvetica,sans-Serif" font-size="10.00">financesim::CareerJob</text>
<text text-anchor="middle" x="61.5" y="-7" font-family="Helvetica,sans-Serif" font-size="10.00">::update</text>
</a>
</g>
</g>
<!-- Node2 -->
<g id="Node000002" class="node">
<title>Node2</title>
<g id="a_Node000002"><a xlink:href="classfinancesim_1_1IncomeBase.html#a2b57b169d37d3049fc9010ed0e366dd3" target="_top" xlink:title=" ">
<polygon fill="white" stroke="#666666" points="295,-30 159,-30 159,0 295,0 295,-30"/>
<text text-anchor="start" x="167" y="-18" font-family="Helvetica,sans-Serif" font-size="10.00">financesim::IncomeBase</text>
<text text-anchor="middle" x="227" y="-7" font-family="Helvetica,sans-Serif" font-size="10.00">::emit</text>
</a>
</g>
</g>
<!-- Node1&#45;&gt;Node2 -->
<g id="edge1_Node000001_Node000002" class="edge">
<title>Node1&#45;&gt;Node2</title>
<g id="a_edge1_Node000001_Node000002"><a xlink:title=" ">
<path fill="none" stroke="#63b8ff" d="M123.38,-15C131.58,-15 140.08,-15 148.51,-15"/>
<polygon fill="#63b8ff" stroke="#63b8ff" points="148.75,-18.5 158.75,-15 148.75,-11.5 148.75,-18.5"/>
</a>
</g>
</g>
<!-- Node2&#45;&gt;Node2 -->
<g id="edge2_Node000002_Node000002" class="edge">
<title>Node2&#45;&gt;Node2</title>
<g id="a_edge2_Node000002_Node000002"><a xlink:title=" ">
<path fill="none" stroke="#63b8ff" d="M198.17,-30.28C191.77,-39.41 201.38,-48 227,-48 242.21,-48 251.78,-44.97 255.71,-40.6"/>
<polygon fill="#63b8ff" stroke="#63b8ff" points="259.21,-40.32 255.83,-30.28 252.21,-40.23 259.21,-40.32"/>
</a>
</g>
</g>
<!-- Node3 -->
<g id="Node000003" class="node">
<title>Node3</title>
<g id="a_Node000003"><a xlink:href="classfinancesim_1_1EventBus.html#a94b4690f4c8a00f2e9fd395bfc7a3b4d" target="_top" xlink:title="Publish an event to all subscribers.">
<polygon fill="white" stroke="#666666" points="453,-30 331,-30 331,0 453,0 453,-30"/>
<text text-anchor="start" x="339" y="-18" font-family="Helvetica,sans-Serif" font-size="10.00">financesim::EventBus</text>
<text text-anchor="middle" x="392" y="-7" font-family="Helvetica,sans-Serif" font-size="10.00">::publish</text>
</a>
</g>
</g>
<!-- Node2&#45;&gt;Node3 -->
<g id="edge3_Node000002_Node000003" class="edge">
<title>Node2&#45;&gt;Node3</title>
<g id="a_edge3_Node000002_Node000003"><a xlink:title=" ">
<path fill="none" stroke="#63b8ff" d="M295.24,-15C303.66,-15 312.28,-15 320.74,-15"/>
<polygon fill="#63b8ff" stroke="#63b8ff" points="320.96,-18.5 330.96,-15 320.96,-11.5 320.96,-18.5"/>
</a>
</g>
</g>
</g>
</svg>
