<?xml version="1.0" encoding="UTF-8" standalone="no"?>
<!DOCTYPE svg PUBLIC "-//W3C//DTD SVG 1.1//EN"
 "http://www.w3.org/Graphics/SVG/1.1/DTD/svg11.dtd">
<!-- Generated by graphviz version 2.43.0 (0)
 -->
<!-- Title: financesim::Event Pages: 1 -->
<svg width="293pt" height="212pt"
 viewBox="0.00 0.00 293.00 212.00" xmlns="http://www.w3.org/2000/svg" xmlns:xlink="http://www.w3.org/1999/xlink">
<g id="graph0" class="graph" transform="scale(1 1) rotate(0) translate(4 208)">
<title>financesim::Event</title>
<!-- Node1 -->
<g id="Node000001" class="node">
<title>Node1</title>
<g id="a_Node000001"><a xlink:title="Base class for all typed events in the simulation.">
<polygon fill="#999999" stroke="#666666" points="104,-111 0,-111 0,-92 104,-92 104,-111"/>
<text text-anchor="middle" x="52" y="-99" font-family="Helvetica,sans-Serif" font-size="10.00">financesim::Event</text>
</a>
</g>
</g>
<!-- Node2 -->
<g id="Node000002" class="node">
<title>Node2</title>
<g id="a_Node000002"><a xlink:href="classfinancesim_1_1AccountEvent.html" target="_top" xlink:title="Event emitted when an account balance changes.">
<polygon fill="white" stroke="#666666" points="284,-204 141,-204 141,-185 284,-185 284,-204"/>
<text text-anchor="middle" x="212.5" y="-192" font-family="Helvetica,sans-Serif" font-size="10.00">financesim::AccountEvent</text>
</a>
</g>
</g>
<!-- Node1&#45;&gt;Node2 -->
<g id="edge1_Node000001_Node000002" class="edge">
<title>Node1&#45;&gt;Node2</title>
<g id="a_edge1_Node000001_Node000002"><a xlink:title=" ">
<path fill="none" stroke="#63b8ff" d="M68.37,-118.8C84.54,-135.95 111.56,-161.73 140,-176.5 146.59,-179.92 153.86,-182.72 161.17,-184.99"/>
<polygon fill="#63b8ff" stroke="#63b8ff" points="70.69,-116.15 61.34,-111.16 65.54,-120.89 70.69,-116.15"/>
</a>
</g>
</g>
<!-- Node3 -->
<g id="Node000003" class="node">
<title>Node3</title>
<g id="a_Node000003"><a xlink:href="classfinancesim_1_1AssetEvent.html" target="_top" xlink:title="Event emitted when asset value changes.">
<polygon fill="white" stroke="#666666" points="278,-167 147,-167 147,-148 278,-148 278,-167"/>
<text text-anchor="middle" x="212.5" y="-155" font-family="Helvetica,sans-Serif" font-size="10.00">financesim::AssetEvent</text>
</a>
</g>
</g>
<!-- Node1&#45;&gt;Node3 -->
<g id="edge2_Node000001_Node000003" class="edge">
<title>Node1&#45;&gt;Node3</title>
<g id="a_edge2_Node000001_Node000003"><a xlink:title=" ">
<path fill="none" stroke="#63b8ff" d="M81.57,-115.4C98.32,-123.19 120.05,-132.68 140,-139.5 149.21,-142.65 159.25,-145.51 168.82,-147.98"/>
<polygon fill="#63b8ff" stroke="#63b8ff" points="82.87,-112.15 72.33,-111.05 79.88,-118.48 82.87,-112.15"/>
</a>
</g>
</g>
<!-- Node4 -->
<g id="Node000004" class="node">
<title>Node4</title>
<g id="a_Node000004"><a xlink:href="classfinancesim_1_1ExpenseEvent.html" target="_top" xlink:title="Event emitted when an expense occurs.">
<polygon fill="white" stroke="#666666" points="285,-130 140,-130 140,-111 285,-111 285,-130"/>
<text text-anchor="middle" x="212.5" y="-118" font-family="Helvetica,sans-Serif" font-size="10.00">financesim::ExpenseEvent</text>
</a>
</g>
</g>
<!-- Node1&#45;&gt;Node4 -->
<g id="edge3_Node000001_Node000004" class="edge">
<title>Node1&#45;&gt;Node4</title>
<g id="a_edge3_Node000001_Node000004"><a xlink:title=" ">
<path fill="none" stroke="#63b8ff" d="M114.11,-108.83C122.52,-109.83 131.21,-110.88 139.79,-111.9"/>
<polygon fill="#63b8ff" stroke="#63b8ff" points="114.37,-105.33 104.02,-107.62 113.54,-112.28 114.37,-105.33"/>
</a>
</g>
</g>
<!-- Node5 -->
<g id="Node000005" class="node">
<title>Node5</title>
<g id="a_Node000005"><a xlink:href="classfinancesim_1_1IncomeEvent.html" target="_top" xlink:title="Event emitted when income is received.">
<polygon fill="white" stroke="#666666" points="282.5,-93 142.5,-93 142.5,-74 282.5,-74 282.5,-93"/>
<text text-anchor="middle" x="212.5" y="-81" font-family="Helvetica,sans-Serif" font-size="10.00">financesim::IncomeEvent</text>
</a>
</g>
</g>
<!-- Node1&#45;&gt;Node5 -->
<g id="edge4_Node000001_Node000005" class="edge">
<title>Node1&#45;&gt;Node5</title>
<g id="a_edge4_Node000001_Node000005"><a xlink:title=" ">
<path fill="none" stroke="#63b8ff" d="M114.25,-94.54C123.46,-93.5 133.01,-92.41 142.37,-91.35"/>
<polygon fill="#63b8ff" stroke="#63b8ff" points="113.56,-91.1 104.02,-95.71 114.35,-98.05 113.56,-91.1"/>
</a>
</g>
</g>
<!-- Node6 -->
<g id="Node000006" class="node">
<title>Node6</title>
<g id="a_Node000006"><a xlink:href="classfinancesim_1_1LiabilityEvent.html" target="_top" xlink:title="Event emitted when liability value changes.">
<polygon fill="white" stroke="#666666" points="284,-56 141,-56 141,-37 284,-37 284,-56"/>
<text text-anchor="middle" x="212.5" y="-44" font-family="Helvetica,sans-Serif" font-size="10.00">financesim::LiabilityEvent</text>
</a>
</g>
</g>
<!-- Node1&#45;&gt;Node6 -->
<g id="edge5_Node000001_Node000006" class="edge">
<title>Node1&#45;&gt;Node6</title>
<g id="a_edge5_Node000001_Node000006"><a xlink:title=" ">
<path fill="none" stroke="#63b8ff" d="M83,-87.93C99.6,-80.72 120.71,-72.02 140,-65.5 150.22,-62.04 161.43,-58.81 171.88,-56.03"/>
<polygon fill="#63b8ff" stroke="#63b8ff" points="81.54,-84.75 73.8,-91.98 84.36,-91.16 81.54,-84.75"/>
</a>
</g>
</g>
<!-- Node7 -->
<g id="Node000007" class="node">
<title>Node7</title>
<g id="a_Node000007"><a xlink:href="classfinancesim_1_1TransferEvent.html" target="_top" xlink:title="Event emitted when funds are transferred between accounts.">
<polygon fill="white" stroke="#666666" points="284,-19 141,-19 141,0 284,0 284,-19"/>
<text text-anchor="middle" x="212.5" y="-7" font-family="Helvetica,sans-Serif" font-size="10.00">financesim::TransferEvent</text>
</a>
</g>
</g>
<!-- Node1&#45;&gt;Node7 -->
<g id="edge6_Node000001_Node000007" class="edge">
<title>Node1&#45;&gt;Node7</title>
<g id="a_edge6_Node000001_Node000007"><a xlink:title=" ">
<path fill="none" stroke="#63b8ff" d="M68.76,-84.49C85.07,-67.87 112.03,-43.02 140,-28.5 147.41,-24.65 155.67,-21.53 163.86,-19.02"/>
<polygon fill="#63b8ff" stroke="#63b8ff" points="66.05,-82.26 61.66,-91.9 71.1,-87.1 66.05,-82.26"/>
</a>
</g>
</g>
</g>
</svg>
