<?xml version="1.0" encoding="UTF-8" standalone="no"?>
<!DOCTYPE svg PUBLIC "-//W3C//DTD SVG 1.1//EN"
 "http://www.w3.org/Graphics/SVG/1.1/DTD/svg11.dtd">
<!-- Generated by graphviz version 2.43.0 (0)
 -->
<!-- Title: financesim::Event::source_id Pages: 1 -->
<svg width="719pt" height="124pt"
 viewBox="0.00 0.00 719.00 124.00" xmlns="http://www.w3.org/2000/svg" xmlns:xlink="http://www.w3.org/1999/xlink">
<g id="graph0" class="graph" transform="scale(1 1) rotate(0) translate(4 120)">
<title>financesim::Event::source_id</title>
<!-- Node1 -->
<g id="Node000001" class="node">
<title>Node1</title>
<g id="a_Node000001"><a xlink:title="Source model ID that generated this event.">
<polygon fill="#999999" stroke="#666666" points="711,-73 601,-73 601,-43 711,-43 711,-73"/>
<text text-anchor="start" x="609" y="-61" font-family="Helvetica,sans-Serif" font-size="10.00">financesim::Event::</text>
<text text-anchor="middle" x="656" y="-50" font-family="Helvetica,sans-Serif" font-size="10.00">source_id</text>
</a>
</g>
</g>
<!-- Node2 -->
<g id="Node000002" class="node">
<title>Node2</title>
<g id="a_Node000002"><a xlink:href="classfinancesim_1_1Logger.html#ab3ad68dc588095caba42cea9a75a8eab" target="_top" xlink:title=" ">
<polygon fill="white" stroke="#666666" points="556.5,-116 447.5,-116 447.5,-86 556.5,-86 556.5,-116"/>
<text text-anchor="start" x="455.5" y="-104" font-family="Helvetica,sans-Serif" font-size="10.00">financesim::Logger</text>
<text text-anchor="middle" x="502" y="-93" font-family="Helvetica,sans-Serif" font-size="10.00">::passes_filters</text>
</a>
</g>
</g>
<!-- Node1&#45;&gt;Node2 -->
<g id="edge1_Node000001_Node000002" class="edge">
<title>Node1&#45;&gt;Node2</title>
<g id="a_edge1_Node000001_Node000002"><a xlink:title=" ">
<path fill="none" stroke="#63b8ff" d="M591.96,-75.83C580.05,-79.2 567.7,-82.7 556.13,-85.97"/>
<polygon fill="#63b8ff" stroke="#63b8ff" points="593.17,-79.13 601.84,-73.04 591.26,-72.39 593.17,-79.13"/>
</a>
</g>
</g>
<!-- Node5 -->
<g id="Node000005" class="node">
<title>Node5</title>
<g id="a_Node000005"><a xlink:href="bindings_8cpp.html#a38316245b18619977305b9a4ee5599e3" target="_top" xlink:title=" ">
<polygon fill="white" stroke="#666666" points="113,-88.5 0,-88.5 0,-69.5 113,-69.5 113,-88.5"/>
<text text-anchor="middle" x="56.5" y="-76.5" font-family="Helvetica,sans-Serif" font-size="10.00">PYBIND11_MODULE</text>
</a>
</g>
</g>
<!-- Node1&#45;&gt;Node5 -->
<g id="edge5_Node000001_Node000005" class="edge">
<title>Node1&#45;&gt;Node5</title>
<g id="a_edge5_Node000001_Node000005"><a xlink:title=" ">
<path fill="none" stroke="#63b8ff" d="M590.62,-60.26C472.76,-64.41 224.26,-73.14 113.19,-77.04"/>
<polygon fill="#63b8ff" stroke="#63b8ff" points="591.05,-63.75 600.92,-59.9 590.81,-56.75 591.05,-63.75"/>
</a>
</g>
</g>
<!-- Node6 -->
<g id="Node000006" class="node">
<title>Node6</title>
<g id="a_Node000006"><a xlink:href="classfinancesim_1_1JsonWriter.html#a90b22af5e0777129867c31a17a84ee1d" target="_top" xlink:title="Write an event to the output.">
<polygon fill="white" stroke="#666666" points="565,-30 439,-30 439,0 565,0 565,-30"/>
<text text-anchor="start" x="447" y="-18" font-family="Helvetica,sans-Serif" font-size="10.00">financesim::JsonWriter</text>
<text text-anchor="middle" x="502" y="-7" font-family="Helvetica,sans-Serif" font-size="10.00">::write</text>
</a>
</g>
</g>
<!-- Node1&#45;&gt;Node6 -->
<g id="edge6_Node000001_Node000006" class="edge">
<title>Node1&#45;&gt;Node6</title>
<g id="a_edge6_Node000001_Node000006"><a xlink:title=" ">
<path fill="none" stroke="#63b8ff" d="M591.96,-40.17C580.05,-36.8 567.7,-33.3 556.13,-30.03"/>
<polygon fill="#63b8ff" stroke="#63b8ff" points="591.26,-43.61 601.84,-42.96 593.17,-36.87 591.26,-43.61"/>
</a>
</g>
</g>
<!-- Node3 -->
<g id="Node000003" class="node">
<title>Node3</title>
<g id="a_Node000003"><a xlink:href="classfinancesim_1_1Logger.html#a7147508c1bf3630d8d881d52981c1d11" target="_top" xlink:title=" ">
<polygon fill="white" stroke="#666666" points="403,-116 294,-116 294,-86 403,-86 403,-116"/>
<text text-anchor="start" x="302" y="-104" font-family="Helvetica,sans-Serif" font-size="10.00">financesim::Logger</text>
<text text-anchor="middle" x="348.5" y="-93" font-family="Helvetica,sans-Serif" font-size="10.00">::on_event</text>
</a>
</g>
</g>
<!-- Node2&#45;&gt;Node3 -->
<g id="edge2_Node000002_Node000003" class="edge">
<title>Node2&#45;&gt;Node3</title>
<g id="a_edge2_Node000002_Node000003"><a xlink:title=" ">
<path fill="none" stroke="#63b8ff" d="M436.96,-101C425.7,-101 414.1,-101 403.17,-101"/>
<polygon fill="#63b8ff" stroke="#63b8ff" points="437.16,-104.5 447.16,-101 437.16,-97.5 437.16,-104.5"/>
</a>
</g>
</g>
<!-- Node4 -->
<g id="Node000004" class="node">
<title>Node4</title>
<g id="a_Node000004"><a xlink:href="classfinancesim_1_1Logger.html#aaa064f5fe53ffee99e7cef98a863ab09" target="_top" xlink:title="Attach to an EventBus (starts logging)">
<polygon fill="white" stroke="#666666" points="258,-116 149,-116 149,-86 258,-86 258,-116"/>
<text text-anchor="start" x="157" y="-104" font-family="Helvetica,sans-Serif" font-size="10.00">financesim::Logger</text>
<text text-anchor="middle" x="203.5" y="-93" font-family="Helvetica,sans-Serif" font-size="10.00">::attach</text>
</a>
</g>
</g>
<!-- Node3&#45;&gt;Node4 -->
<g id="edge3_Node000003_Node000004" class="edge">
<title>Node3&#45;&gt;Node4</title>
<g id="a_edge3_Node000003_Node000004"><a xlink:title=" ">
<path fill="none" stroke="#63b8ff" d="M283.68,-101C275.25,-101 266.69,-101 258.46,-101"/>
<polygon fill="#63b8ff" stroke="#63b8ff" points="283.85,-104.5 293.85,-101 283.85,-97.5 283.85,-104.5"/>
</a>
</g>
</g>
<!-- Node4&#45;&gt;Node5 -->
<g id="edge4_Node000004_Node000005" class="edge">
<title>Node4&#45;&gt;Node5</title>
<g id="a_edge4_Node000004_Node000005"><a xlink:title=" ">
<path fill="none" stroke="#63b8ff" d="M138.98,-91.36C130.42,-90.06 121.7,-88.74 113.29,-87.46"/>
<polygon fill="#63b8ff" stroke="#63b8ff" points="138.51,-94.83 148.92,-92.87 139.56,-87.91 138.51,-94.83"/>
</a>
</g>
</g>
</g>
</svg>
