<?xml version="1.0" encoding="UTF-8" standalone="no"?>
<!DOCTYPE svg PUBLIC "-//W3C//DTD SVG 1.1//EN"
 "http://www.w3.org/Graphics/SVG/1.1/DTD/svg11.dtd">
<!-- Generated by graphviz version 2.43.0 (0)
 -->
<!-- Title: src/core/logger.cpp Pages: 1 -->
<svg width="854pt" height="247pt"
 viewBox="0.00 0.00 853.86 247.00" xmlns="http://www.w3.org/2000/svg" xmlns:xlink="http://www.w3.org/1999/xlink">
<g id="graph0" class="graph" transform="scale(1 1) rotate(0) translate(4 243)">
<title>src/core/logger.cpp</title>
<!-- Node1 -->
<g id="Node000001" class="node">
<title>Node1</title>
<g id="a_Node000001"><a xlink:title=" ">
<polygon fill="#999999" stroke="#666666" points="621.86,-239 513.86,-239 513.86,-220 621.86,-220 621.86,-239"/>
<text text-anchor="middle" x="567.86" y="-227" font-family="Helvetica,sans-Serif" font-size="10.00">src/core/logger.cpp</text>
</a>
</g>
</g>
<!-- Node2 -->
<g id="Node000002" class="node">
<title>Node2</title>
<g id="a_Node000002"><a xlink:href="logger_8hpp.html" target="_top" xlink:title=" ">
<polygon fill="white" stroke="#666666" points="613.86,-184 521.86,-184 521.86,-165 613.86,-165 613.86,-184"/>
<text text-anchor="middle" x="567.86" y="-172" font-family="Helvetica,sans-Serif" font-size="10.00">core/logger.hpp</text>
</a>
</g>
</g>
<!-- Node1&#45;&gt;Node2 -->
<g id="edge1_Node000001_Node000002" class="edge">
<title>Node1&#45;&gt;Node2</title>
<g id="a_edge1_Node000001_Node000002"><a xlink:title=" ">
<path fill="none" stroke="#63b8ff" d="M567.86,-219.75C567.86,-212.8 567.86,-202.85 567.86,-194.13"/>
<polygon fill="#63b8ff" stroke="#63b8ff" points="571.36,-194.09 567.86,-184.09 564.36,-194.09 571.36,-194.09"/>
</a>
</g>
</g>
<!-- Node3 -->
<g id="Node000003" class="node">
<title>Node3</title>
<g id="a_Node000003"><a xlink:title=" ">
<polygon fill="#e0e0e0" stroke="#999999" points="60.36,-74 13.36,-74 13.36,-55 60.36,-55 60.36,-74"/>
<text text-anchor="middle" x="36.86" y="-62" font-family="Helvetica,sans-Serif" font-size="10.00">vector</text>
</a>
</g>
</g>
<!-- Node2&#45;&gt;Node3 -->
<g id="edge2_Node000002_Node000003" class="edge">
<title>Node2&#45;&gt;Node3</title>
<g id="a_edge2_Node000002_Node000003"><a xlink:title=" ">
<path fill="none" stroke="#63b8ff" d="M521.63,-171.84C450.58,-168.42 310.73,-158.27 195.86,-129 147.52,-116.68 94.22,-93.22 63.24,-78.52"/>
<polygon fill="#63b8ff" stroke="#63b8ff" points="64.54,-75.26 54.01,-74.08 61.5,-81.57 64.54,-75.26"/>
</a>
</g>
</g>
<!-- Node4 -->
<g id="Node000004" class="node">
<title>Node4</title>
<g id="a_Node000004"><a xlink:title=" ">
<polygon fill="#e0e0e0" stroke="#999999" points="267.86,-19 209.86,-19 209.86,0 267.86,0 267.86,-19"/>
<text text-anchor="middle" x="238.86" y="-7" font-family="Helvetica,sans-Serif" font-size="10.00">memory</text>
</a>
</g>
</g>
<!-- Node2&#45;&gt;Node4 -->
<g id="edge3_Node000002_Node000004" class="edge">
<title>Node2&#45;&gt;Node4</title>
<g id="a_edge3_Node000002_Node000004"><a xlink:title=" ">
<path fill="none" stroke="#63b8ff" d="M521.84,-173.41C397.61,-172.01 60.98,-160.19 3.86,-74 -0.81,-66.96 -1.53,-61.5 3.86,-55 28.22,-25.59 138.92,-15.47 199.29,-12.1"/>
<polygon fill="#63b8ff" stroke="#63b8ff" points="199.78,-15.58 209.59,-11.57 199.42,-8.59 199.78,-15.58"/>
</a>
</g>
</g>
<!-- Node5 -->
<g id="Node000005" class="node">
<title>Node5</title>
<g id="a_Node000005"><a xlink:title=" ">
<polygon fill="#e0e0e0" stroke="#999999" points="645.86,-19 601.86,-19 601.86,0 645.86,0 645.86,-19"/>
<text text-anchor="middle" x="623.86" y="-7" font-family="Helvetica,sans-Serif" font-size="10.00">string</text>
</a>
</g>
</g>
<!-- Node2&#45;&gt;Node5 -->
<g id="edge4_Node000002_Node000005" class="edge">
<title>Node2&#45;&gt;Node5</title>
<g id="a_edge4_Node000002_Node000005"><a xlink:title=" ">
<path fill="none" stroke="#63b8ff" d="M614.02,-164.96C661.69,-153.41 733.66,-127.72 766.86,-74 793.39,-31.07 706.1,-17.01 656.22,-12.52"/>
<polygon fill="#63b8ff" stroke="#63b8ff" points="656.45,-9.03 646.2,-11.7 655.88,-16.01 656.45,-9.03"/>
</a>
</g>
</g>
<!-- Node6 -->
<g id="Node000006" class="node">
<title>Node6</title>
<g id="a_Node000006"><a xlink:title=" ">
<polygon fill="#e0e0e0" stroke="#999999" points="845.86,-129 813.86,-129 813.86,-110 845.86,-110 845.86,-129"/>
<text text-anchor="middle" x="829.86" y="-117" font-family="Helvetica,sans-Serif" font-size="10.00">set</text>
</a>
</g>
</g>
<!-- Node2&#45;&gt;Node6 -->
<g id="edge5_Node000002_Node000006" class="edge">
<title>Node2&#45;&gt;Node6</title>
<g id="a_edge5_Node000002_Node000006"><a xlink:title=" ">
<path fill="none" stroke="#63b8ff" d="M613.89,-165.88C660.88,-157.82 735.81,-144.19 799.86,-129 801.13,-128.7 802.43,-128.38 803.75,-128.04"/>
<polygon fill="#63b8ff" stroke="#63b8ff" points="804.99,-131.33 813.73,-125.35 803.17,-124.57 804.99,-131.33"/>
</a>
</g>
</g>
<!-- Node7 -->
<g id="Node000007" class="node">
<title>Node7</title>
<g id="a_Node000007"><a xlink:href="event__bus_8hpp.html" target="_top" xlink:title=" ">
<polygon fill="white" stroke="#666666" points="316.86,-129 204.86,-129 204.86,-110 316.86,-110 316.86,-129"/>
<text text-anchor="middle" x="260.86" y="-117" font-family="Helvetica,sans-Serif" font-size="10.00">core/event_bus.hpp</text>
</a>
</g>
</g>
<!-- Node2&#45;&gt;Node7 -->
<g id="edge6_Node000002_Node000007" class="edge">
<title>Node2&#45;&gt;Node7</title>
<g id="a_edge6_Node000002_Node000007"><a xlink:title=" ">
<path fill="none" stroke="#63b8ff" d="M521.57,-165.51C467.81,-156.23 379.01,-140.9 320.22,-130.75"/>
<polygon fill="#63b8ff" stroke="#63b8ff" points="320.78,-127.29 310.33,-129.04 319.59,-134.19 320.78,-127.29"/>
</a>
</g>
</g>
<!-- Node13 -->
<g id="Node000013" class="node">
<title>Node13</title>
<g id="a_Node000013"><a xlink:href="log__level_8hpp.html" target="_top" xlink:title=" ">
<polygon fill="white" stroke="#666666" points="757.86,-74 651.86,-74 651.86,-55 757.86,-55 757.86,-74"/>
<text text-anchor="middle" x="704.86" y="-62" font-family="Helvetica,sans-Serif" font-size="10.00">core/log_level.hpp</text>
</a>
</g>
</g>
<!-- Node2&#45;&gt;Node13 -->
<g id="edge16_Node000002_Node000013" class="edge">
<title>Node2&#45;&gt;Node13</title>
<g id="a_edge16_Node000002_Node000013"><a xlink:title=" ">
<path fill="none" stroke="#63b8ff" d="M581.15,-164.87C594.31,-156.19 614.88,-142.22 631.86,-129 651.8,-113.47 673.52,-94.26 688.04,-81.06"/>
<polygon fill="#63b8ff" stroke="#63b8ff" points="690.67,-83.39 695.69,-74.05 685.95,-78.23 690.67,-83.39"/>
</a>
</g>
</g>
<!-- Node14 -->
<g id="Node000014" class="node">
<title>Node14</title>
<g id="a_Node000014"><a xlink:href="log__writer_8hpp.html" target="_top" xlink:title=" ">
<polygon fill="white" stroke="#666666" points="622.86,-129 512.86,-129 512.86,-110 622.86,-110 622.86,-129"/>
<text text-anchor="middle" x="567.86" y="-117" font-family="Helvetica,sans-Serif" font-size="10.00">core/log_writer.hpp</text>
</a>
</g>
</g>
<!-- Node2&#45;&gt;Node14 -->
<g id="edge17_Node000002_Node000014" class="edge">
<title>Node2&#45;&gt;Node14</title>
<g id="a_edge17_Node000002_Node000014"><a xlink:title=" ">
<path fill="none" stroke="#63b8ff" d="M567.86,-164.75C567.86,-157.8 567.86,-147.85 567.86,-139.13"/>
<polygon fill="#63b8ff" stroke="#63b8ff" points="571.36,-139.09 567.86,-129.09 564.36,-139.09 571.36,-139.09"/>
</a>
</g>
</g>
<!-- Node7&#45;&gt;Node3 -->
<g id="edge7_Node000007_Node000003" class="edge">
<title>Node7&#45;&gt;Node3</title>
<g id="a_edge7_Node000007_Node000003"><a xlink:title=" ">
<path fill="none" stroke="#63b8ff" d="M224.87,-109.98C182.23,-99.9 111.76,-83.22 70.28,-73.41"/>
<polygon fill="#63b8ff" stroke="#63b8ff" points="70.93,-69.96 60.39,-71.07 69.32,-76.78 70.93,-69.96"/>
</a>
</g>
</g>
<!-- Node7&#45;&gt;Node4 -->
<g id="edge11_Node000007_Node000004" class="edge">
<title>Node7&#45;&gt;Node4</title>
<g id="a_edge11_Node000007_Node000004"><a xlink:title=" ">
<path fill="none" stroke="#63b8ff" d="M207.51,-109.94C168.37,-102.44 120.02,-90.21 107.86,-74 81.36,-38.69 152.02,-22 199.58,-14.96"/>
<polygon fill="#63b8ff" stroke="#63b8ff" points="200.21,-18.41 209.63,-13.57 199.24,-11.48 200.21,-18.41"/>
</a>
</g>
</g>
<!-- Node8 -->
<g id="Node000008" class="node">
<title>Node8</title>
<g id="a_Node000008"><a xlink:title=" ">
<polygon fill="#e0e0e0" stroke="#999999" points="376.36,-74 311.36,-74 311.36,-55 376.36,-55 376.36,-74"/>
<text text-anchor="middle" x="343.86" y="-62" font-family="Helvetica,sans-Serif" font-size="10.00">functional</text>
</a>
</g>
</g>
<!-- Node7&#45;&gt;Node8 -->
<g id="edge8_Node000007_Node000008" class="edge">
<title>Node7&#45;&gt;Node8</title>
<g id="a_edge8_Node000007_Node000008"><a xlink:title=" ">
<path fill="none" stroke="#63b8ff" d="M274.2,-109.98C286.95,-101.84 306.41,-89.41 321.53,-79.76"/>
<polygon fill="#63b8ff" stroke="#63b8ff" points="323.74,-82.5 330.28,-74.17 319.97,-76.6 323.74,-82.5"/>
</a>
</g>
</g>
<!-- Node9 -->
<g id="Node000009" class="node">
<title>Node9</title>
<g id="a_Node000009"><a xlink:title=" ">
<polygon fill="#e0e0e0" stroke="#999999" points="210.36,-74 117.36,-74 117.36,-55 210.36,-55 210.36,-74"/>
<text text-anchor="middle" x="163.86" y="-62" font-family="Helvetica,sans-Serif" font-size="10.00">unordered_map</text>
</a>
</g>
</g>
<!-- Node7&#45;&gt;Node9 -->
<g id="edge9_Node000007_Node000009" class="edge">
<title>Node7&#45;&gt;Node9</title>
<g id="a_edge9_Node000007_Node000009"><a xlink:title=" ">
<path fill="none" stroke="#63b8ff" d="M245.28,-109.98C230.09,-101.69 206.76,-88.94 188.96,-79.22"/>
<polygon fill="#63b8ff" stroke="#63b8ff" points="190.18,-75.89 179.73,-74.17 186.83,-82.04 190.18,-75.89"/>
</a>
</g>
</g>
<!-- Node10 -->
<g id="Node000010" class="node">
<title>Node10</title>
<g id="a_Node000010"><a xlink:title=" ">
<polygon fill="#e0e0e0" stroke="#999999" points="293.36,-74 228.36,-74 228.36,-55 293.36,-55 293.36,-74"/>
<text text-anchor="middle" x="260.86" y="-62" font-family="Helvetica,sans-Serif" font-size="10.00">typeindex</text>
</a>
</g>
</g>
<!-- Node7&#45;&gt;Node10 -->
<g id="edge10_Node000007_Node000010" class="edge">
<title>Node7&#45;&gt;Node10</title>
<g id="a_edge10_Node000007_Node000010"><a xlink:title=" ">
<path fill="none" stroke="#63b8ff" d="M260.86,-109.75C260.86,-102.8 260.86,-92.85 260.86,-84.13"/>
<polygon fill="#63b8ff" stroke="#63b8ff" points="264.36,-84.09 260.86,-74.09 257.36,-84.09 264.36,-84.09"/>
</a>
</g>
</g>
<!-- Node11 -->
<g id="Node000011" class="node">
<title>Node11</title>
<g id="a_Node000011"><a xlink:href="event_8hpp.html" target="_top" xlink:title=" ">
<polygon fill="white" stroke="#666666" points="522.36,-74 433.36,-74 433.36,-55 522.36,-55 522.36,-74"/>
<text text-anchor="middle" x="477.86" y="-62" font-family="Helvetica,sans-Serif" font-size="10.00">core/event.hpp</text>
</a>
</g>
</g>
<!-- Node7&#45;&gt;Node11 -->
<g id="edge12_Node000007_Node000011" class="edge">
<title>Node7&#45;&gt;Node11</title>
<g id="a_edge12_Node000007_Node000011"><a xlink:title=" ">
<path fill="none" stroke="#63b8ff" d="M295.72,-109.98C332.95,-100.89 392.06,-86.46 432.79,-76.51"/>
<polygon fill="#63b8ff" stroke="#63b8ff" points="433.84,-79.85 442.72,-74.08 432.18,-73.05 433.84,-79.85"/>
</a>
</g>
</g>
<!-- Node11&#45;&gt;Node4 -->
<g id="edge14_Node000011_Node000004" class="edge">
<title>Node11&#45;&gt;Node4</title>
<g id="a_edge14_Node000011_Node000004"><a xlink:title=" ">
<path fill="none" stroke="#63b8ff" d="M439.46,-54.98C395.15,-45.16 322.66,-29.08 278.02,-19.18"/>
<polygon fill="#63b8ff" stroke="#63b8ff" points="278.65,-15.74 268.12,-16.99 277.13,-22.57 278.65,-15.74"/>
</a>
</g>
</g>
<!-- Node11&#45;&gt;Node5 -->
<g id="edge13_Node000011_Node000005" class="edge">
<title>Node11&#45;&gt;Node5</title>
<g id="a_edge13_Node000011_Node000005"><a xlink:title=" ">
<path fill="none" stroke="#63b8ff" d="M501.32,-54.98C525.87,-46.07 564.58,-32.02 591.91,-22.1"/>
<polygon fill="#63b8ff" stroke="#63b8ff" points="593.21,-25.35 601.42,-18.65 590.83,-18.77 593.21,-25.35"/>
</a>
</g>
</g>
<!-- Node12 -->
<g id="Node000012" class="node">
<title>Node12</title>
<g id="a_Node000012"><a xlink:href="time_8hpp.html" target="_top" xlink:title=" ">
<polygon fill="white" stroke="#666666" points="519.86,-19 435.86,-19 435.86,0 519.86,0 519.86,-19"/>
<text text-anchor="middle" x="477.86" y="-7" font-family="Helvetica,sans-Serif" font-size="10.00">core/time.hpp</text>
</a>
</g>
</g>
<!-- Node11&#45;&gt;Node12 -->
<g id="edge15_Node000011_Node000012" class="edge">
<title>Node11&#45;&gt;Node12</title>
<g id="a_edge15_Node000011_Node000012"><a xlink:title=" ">
<path fill="none" stroke="#63b8ff" d="M477.86,-54.75C477.86,-47.8 477.86,-37.85 477.86,-29.13"/>
<polygon fill="#63b8ff" stroke="#63b8ff" points="481.36,-29.09 477.86,-19.09 474.36,-29.09 481.36,-29.09"/>
</a>
</g>
</g>
<!-- Node14&#45;&gt;Node4 -->
<g id="edge19_Node000014_Node000004" class="edge">
<title>Node14&#45;&gt;Node4</title>
<g id="a_edge19_Node000014_Node000004"><a xlink:title=" ">
<path fill="none" stroke="#63b8ff" d="M535.57,-109.97C506.27,-101.87 462.08,-88.76 424.86,-74 406.94,-66.89 403.81,-62.04 385.86,-55 349.95,-40.92 307.69,-28.55 277.72,-20.44"/>
<polygon fill="#63b8ff" stroke="#63b8ff" points="278.62,-17.06 268.05,-17.86 276.81,-23.82 278.62,-17.06"/>
</a>
</g>
</g>
<!-- Node14&#45;&gt;Node5 -->
<g id="edge18_Node000014_Node000005" class="edge">
<title>Node14&#45;&gt;Node5</title>
<g id="a_edge18_Node000014_Node000005"><a xlink:title=" ">
<path fill="none" stroke="#63b8ff" d="M577,-109.76C585.33,-101.32 597.45,-87.81 604.86,-74 612.43,-59.88 617.39,-42.34 620.33,-29.27"/>
<polygon fill="#63b8ff" stroke="#63b8ff" points="623.83,-29.64 622.42,-19.14 616.97,-28.23 623.83,-29.64"/>
</a>
</g>
</g>
<!-- Node14&#45;&gt;Node11 -->
<g id="edge21_Node000014_Node000011" class="edge">
<title>Node14&#45;&gt;Node11</title>
<g id="a_edge21_Node000014_Node000011"><a xlink:title=" ">
<path fill="none" stroke="#63b8ff" d="M553.4,-109.98C539.44,-101.77 518.07,-89.18 501.61,-79.49"/>
<polygon fill="#63b8ff" stroke="#63b8ff" points="502.98,-76.23 492.58,-74.17 499.42,-82.26 502.98,-76.23"/>
</a>
</g>
</g>
<!-- Node14&#45;&gt;Node13 -->
<g id="edge22_Node000014_Node000013" class="edge">
<title>Node14&#45;&gt;Node13</title>
<g id="a_edge22_Node000014_Node000013"><a xlink:title=" ">
<path fill="none" stroke="#63b8ff" d="M589.87,-109.98C612.31,-101.3 647.34,-87.75 672.85,-77.88"/>
<polygon fill="#63b8ff" stroke="#63b8ff" points="674.38,-81.04 682.45,-74.17 671.86,-74.51 674.38,-81.04"/>
</a>
</g>
</g>
<!-- Node15 -->
<g id="Node000015" class="node">
<title>Node15</title>
<g id="a_Node000015"><a xlink:title=" ">
<polygon fill="#e0e0e0" stroke="#999999" points="595.36,-74 540.36,-74 540.36,-55 595.36,-55 595.36,-74"/>
<text text-anchor="middle" x="567.86" y="-62" font-family="Helvetica,sans-Serif" font-size="10.00">fstream</text>
</a>
</g>
</g>
<!-- Node14&#45;&gt;Node15 -->
<g id="edge20_Node000014_Node000015" class="edge">
<title>Node14&#45;&gt;Node15</title>
<g id="a_edge20_Node000014_Node000015"><a xlink:title=" ">
<path fill="none" stroke="#63b8ff" d="M567.86,-109.75C567.86,-102.8 567.86,-92.85 567.86,-84.13"/>
<polygon fill="#63b8ff" stroke="#63b8ff" points="571.36,-84.09 567.86,-74.09 564.36,-84.09 571.36,-84.09"/>
</a>
</g>
</g>
</g>
</svg>
