<?xml version="1.0" encoding="UTF-8" standalone="no"?>
<!DOCTYPE svg PUBLIC "-//W3C//DTD SVG 1.1//EN"
 "http://www.w3.org/Graphics/SVG/1.1/DTD/svg11.dtd">
<!-- Generated by graphviz version 2.43.0 (0)
 -->
<!-- Title: src/core/time.hpp Pages: 1 -->
<!--zoomable 390 -->

<svg id="main" version="1.1" xmlns="http://www.w3.org/2000/svg" xmlns:xlink="http://www.w3.org/1999/xlink" xml:space="preserve" onload="init(evt)">
<style type="text/css"><![CDATA[
.node, .edge {opacity: 0.7;}
.node.selected, .edge.selected {opacity: 1;}
.edge:hover path { stroke: red; }
.edge:hover polygon { stroke: red; fill: red; }
]]></style>

<defs>
  <circle id="rim" cx="0" cy="0" r="7"/>
  <circle id="rim2" cx="0" cy="0" r="3.5"/>
  <g id="zoomPlus">
    <use xlink:href="#rim" fill="#404040"><set attributeName="fill" to="#808080" begin="zoomplus.mouseover" end="zoomplus.mouseout"/></use>
    <path d="M-4,0h8M0,-4v8" fill="none" stroke="white" stroke-width="1.5" pointer-events="none"/>
  </g>
  <g id="zoomMin">
    <use xlink:href="#rim" fill="#404040"><set attributeName="fill" to="#808080" begin="zoomminus.mouseover" end="zoomminus.mouseout"/></use>
    <path d="M-4,0h8" fill="none" stroke="white" stroke-width="1.5" pointer-events="none"/>
  </g>
  <g id="arrowUp" transform="translate(30 24)">
    <use xlink:href="#rim"/>
    <path pointer-events="none" fill="none" stroke="white" stroke-width="1.5" d="M0,-3.0v7 M-2.5,-0.5L0,-3.0L2.5,-0.5"/>
  </g>
  <g id="arrowRight" transform="rotate(90) translate(36 -43)">
    <use xlink:href="#rim"/>
    <path pointer-events="none" fill="none" stroke="white" stroke-width="1.5" d="M0,-3.0v7 M-2.5,-0.5L0,-3.0L2.5,-0.5"/>
  </g>
  <g id="arrowDown" transform="rotate(180) translate(-30 -48)">
    <use xlink:href="#rim"/>
    <path pointer-events="none" fill="none" stroke="white" stroke-width="1.5" d="M0,-3.0v7 M-2.5,-0.5L0,-3.0L2.5,-0.5"/>
  </g>
  <g id="arrowLeft" transform="rotate(270) translate(-36 17)">
    <use xlink:href="#rim"/>
    <path pointer-events="none" fill="none" stroke="white" stroke-width="1.5" d="M0,-3.0v7 M-2.5,-0.5L0,-3.0L2.5,-0.5"/>
  </g>
  <g id="resetDef">
    <use xlink:href="#rim2" fill="#404040"><set attributeName="fill" to="#808080" begin="reset.mouseover" end="reset.mouseout"/></use>
  </g>
</defs>
<script type="application/ecmascript">
var viewWidth = 1704;
var viewHeight = 390;
var sectionId = 'dynsection-0';
</script>
<script type="application/ecmascript" xlink:href="svg.min.js"/>
<svg id="graph" class="graph">
<g id="viewport">
<title>src/core/time.hpp</title>
<!-- Node1 -->
<g id="Node000001" class="node">
<title>Node1</title>
<g id="a_Node000001"><a xlink:title=" ">
<polygon fill="#999999" stroke="#666666" points="883.5,-382 782.5,-382 782.5,-363 883.5,-363 883.5,-382"/>
<text text-anchor="middle" x="833" y="-370" font-family="Helvetica,sans-Serif" font-size="10.00">src/core/time.hpp</text>
</a>
</g>
</g>
<!-- Node2 -->
<g id="Node000002" class="node">
<title>Node2</title>
<g id="a_Node000002"><a xlink:href="bindings_8cpp.html" target="_top" xlink:title=" ">
<polygon fill="white" stroke="#666666" points="759,-24.5 619,-24.5 619,-5.5 759,-5.5 759,-24.5"/>
<text text-anchor="middle" x="689" y="-12.5" font-family="Helvetica,sans-Serif" font-size="10.00">src/bindings/bindings.cpp</text>
</a>
</g>
</g>
<!-- Node1&#45;&gt;Node2 -->
<g id="edge1_Node000001_Node000002" class="edge">
<title>Node1&#45;&gt;Node2</title>
<g id="a_edge1_Node000001_Node000002"><a xlink:title=" ">
<path fill="none" stroke="#63b8ff" d="M893.92,-370.28C1090.61,-365.56 1696,-344.44 1696,-263.5 1696,-263.5 1696,-263.5 1696,-146 1696,-102.34 1677.27,-87.01 1639,-66 1562.59,-24.04 966.08,-17.28 759.3,-16.2"/>
<polygon fill="#63b8ff" stroke="#63b8ff" points="893.68,-366.79 883.76,-370.52 893.84,-373.79 893.68,-366.79"/>
</a>
</g>
</g>
<!-- Node3 -->
<g id="Node000003" class="node">
<title>Node3</title>
<g id="a_Node000003"><a xlink:href="event_8hpp.html" target="_top" xlink:title=" ">
<polygon fill="white" stroke="#666666" points="641.5,-327 534.5,-327 534.5,-308 641.5,-308 641.5,-327"/>
<text text-anchor="middle" x="588" y="-315" font-family="Helvetica,sans-Serif" font-size="10.00">src/core/event.hpp</text>
</a>
</g>
</g>
<!-- Node1&#45;&gt;Node3 -->
<g id="edge2_Node000001_Node000003" class="edge">
<title>Node1&#45;&gt;Node3</title>
<g id="a_edge2_Node000001_Node000003"><a xlink:title=" ">
<path fill="none" stroke="#63b8ff" d="M783.61,-360.82C737.7,-350.88 670.17,-336.28 627.67,-327.08"/>
<polygon fill="#63b8ff" stroke="#63b8ff" points="783.12,-364.29 793.64,-362.98 784.6,-357.45 783.12,-364.29"/>
</a>
</g>
</g>
<!-- Node7 -->
<g id="Node000007" class="node">
<title>Node7</title>
<g id="a_Node000007"><a xlink:href="model_8hpp.html" target="_top" xlink:title=" ">
<polygon fill="white" stroke="#666666" points="888,-217 778,-217 778,-198 888,-198 888,-217"/>
<text text-anchor="middle" x="833" y="-205" font-family="Helvetica,sans-Serif" font-size="10.00">src/core/model.hpp</text>
</a>
</g>
</g>
<!-- Node1&#45;&gt;Node7 -->
<g id="edge41_Node000001_Node000007" class="edge">
<title>Node1&#45;&gt;Node7</title>
<g id="a_edge41_Node000001_Node000007"><a xlink:title=" ">
<path fill="none" stroke="#63b8ff" d="M833,-352.37C833,-317.03 833,-242.79 833,-217.31"/>
<polygon fill="#63b8ff" stroke="#63b8ff" points="829.5,-352.74 833,-362.74 836.5,-352.74 829.5,-352.74"/>
</a>
</g>
</g>
<!-- Node3&#45;&gt;Node2 -->
<g id="edge3_Node000003_Node000002" class="edge">
<title>Node3&#45;&gt;Node2</title>
<g id="a_edge3_Node000003_Node000002"><a xlink:title=" ">
<path fill="none" stroke="#63b8ff" d="M524,-313.97C402.41,-307.4 150,-284.6 150,-208.5 150,-208.5 150,-208.5 150,-146 150,-109.46 141.45,-90.01 169,-66 202.23,-37.05 484.78,-23.24 618.89,-18.26"/>
<polygon fill="#63b8ff" stroke="#63b8ff" points="524.12,-317.48 534.29,-314.5 524.49,-310.49 524.12,-317.48"/>
</a>
</g>
</g>
<!-- Node4 -->
<g id="Node000004" class="node">
<title>Node4</title>
<g id="a_Node000004"><a xlink:href="event__bus_8hpp.html" target="_top" xlink:title=" ">
<polygon fill="white" stroke="#666666" points="753.5,-272 624.5,-272 624.5,-253 753.5,-253 753.5,-272"/>
<text text-anchor="middle" x="689" y="-260" font-family="Helvetica,sans-Serif" font-size="10.00">src/core/event_bus.hpp</text>
</a>
</g>
</g>
<!-- Node3&#45;&gt;Node4 -->
<g id="edge4_Node000003_Node000004" class="edge">
<title>Node3&#45;&gt;Node4</title>
<g id="a_edge4_Node000003_Node000004"><a xlink:title=" ">
<path fill="none" stroke="#63b8ff" d="M613.28,-303.23C631.8,-293.51 656.42,-280.6 672.48,-272.17"/>
<polygon fill="#63b8ff" stroke="#63b8ff" points="611.46,-300.24 604.23,-307.98 614.71,-306.44 611.46,-300.24"/>
</a>
</g>
</g>
<!-- Node8 -->
<g id="Node000008" class="node">
<title>Node8</title>
<g id="a_Node000008"><a xlink:href="account__base_8hpp.html" target="_top" xlink:title=" ">
<polygon fill="white" stroke="#666666" points="420,-162 304,-162 304,-132 420,-132 420,-162"/>
<text text-anchor="start" x="312" y="-150" font-family="Helvetica,sans-Serif" font-size="10.00">src/models/accounts</text>
<text text-anchor="middle" x="362" y="-139" font-family="Helvetica,sans-Serif" font-size="10.00">/account_base.hpp</text>
</a>
</g>
</g>
<!-- Node3&#45;&gt;Node8 -->
<g id="edge39_Node000003_Node000008" class="edge">
<title>Node3&#45;&gt;Node8</title>
<g id="a_edge39_Node000003_Node000008"><a xlink:title=" ">
<path fill="none" stroke="#63b8ff" d="M524.53,-308.88C469.85,-298.49 394.59,-274.08 361,-217 351.1,-200.17 354.21,-176.8 357.78,-162.04"/>
<polygon fill="#63b8ff" stroke="#63b8ff" points="524.02,-312.35 534.48,-310.67 525.25,-305.46 524.02,-312.35"/>
</a>
</g>
</g>
<!-- Node20 -->
<g id="Node000020" class="node">
<title>Node20</title>
<g id="a_Node000020"><a xlink:href="career__job_8cpp.html" target="_top" xlink:title=" ">
<polygon fill="white" stroke="#666666" points="1679.5,-30 1536.5,-30 1536.5,0 1679.5,0 1679.5,-30"/>
<text text-anchor="start" x="1544.5" y="-18" font-family="Helvetica,sans-Serif" font-size="10.00">src/models/income/career</text>
<text text-anchor="middle" x="1608" y="-7" font-family="Helvetica,sans-Serif" font-size="10.00">_job.cpp</text>
</a>
</g>
</g>
<!-- Node3&#45;&gt;Node20 -->
<g id="edge40_Node000003_Node000020" class="edge">
<title>Node3&#45;&gt;Node20</title>
<g id="a_edge40_Node000003_Node000020"><a xlink:title=" ">
<path fill="none" stroke="#63b8ff" d="M652.04,-316.79C882.78,-317.02 1658,-310.21 1658,-208.5 1658,-208.5 1658,-208.5 1658,-146 1658,-109.46 1653.03,-99.74 1639,-66 1633.67,-53.17 1625.25,-39.86 1618.53,-30.2"/>
<polygon fill="#63b8ff" stroke="#63b8ff" points="651.8,-313.29 641.79,-316.78 651.79,-320.29 651.8,-313.29"/>
</a>
</g>
</g>
<!-- Node24 -->
<g id="Node000024" class="node">
<title>Node24</title>
<g id="a_Node000024"><a xlink:href="log__writer_8hpp.html" target="_top" xlink:title=" ">
<polygon fill="white" stroke="#666666" points="596.5,-272 469.5,-272 469.5,-253 596.5,-253 596.5,-272"/>
<text text-anchor="middle" x="533" y="-260" font-family="Helvetica,sans-Serif" font-size="10.00">src/core/log_writer.hpp</text>
</a>
</g>
</g>
<!-- Node3&#45;&gt;Node24 -->
<g id="edge35_Node000003_Node000024" class="edge">
<title>Node3&#45;&gt;Node24</title>
<g id="a_edge35_Node000003_Node000024"><a xlink:title=" ">
<path fill="none" stroke="#63b8ff" d="M571.71,-300.8C561.96,-291.41 549.95,-279.83 541.91,-272.09"/>
<polygon fill="#63b8ff" stroke="#63b8ff" points="569.29,-303.33 578.92,-307.75 574.15,-298.29 569.29,-303.33"/>
</a>
</g>
</g>
<!-- Node4&#45;&gt;Node2 -->
<g id="edge5_Node000004_Node000002" class="edge">
<title>Node4&#45;&gt;Node2</title>
<g id="a_edge5_Node000004_Node000002"><a xlink:title=" ">
<path fill="none" stroke="#63b8ff" d="M689,-242.47C689,-192.65 689,-59.79 689,-24.63"/>
<polygon fill="#63b8ff" stroke="#63b8ff" points="685.5,-242.76 689,-252.76 692.5,-242.76 685.5,-242.76"/>
</a>
</g>
</g>
<!-- Node5 -->
<g id="Node000005" class="node">
<title>Node5</title>
<g id="a_Node000005"><a xlink:href="logger_8hpp.html" target="_top" xlink:title=" ">
<polygon fill="white" stroke="#666666" points="670.5,-217 561.5,-217 561.5,-198 670.5,-198 670.5,-217"/>
<text text-anchor="middle" x="616" y="-205" font-family="Helvetica,sans-Serif" font-size="10.00">src/core/logger.hpp</text>
</a>
</g>
</g>
<!-- Node4&#45;&gt;Node5 -->
<g id="edge6_Node000004_Node000005" class="edge">
<title>Node4&#45;&gt;Node5</title>
<g id="a_edge6_Node000004_Node000005"><a xlink:title=" ">
<path fill="none" stroke="#63b8ff" d="M668.86,-246.88C655.72,-237.34 639.02,-225.21 627.94,-217.17"/>
<polygon fill="#63b8ff" stroke="#63b8ff" points="667.12,-249.94 677.27,-252.98 671.24,-244.28 667.12,-249.94"/>
</a>
</g>
</g>
<!-- Node4&#45;&gt;Node7 -->
<g id="edge9_Node000004_Node000007" class="edge">
<title>Node4&#45;&gt;Node7</title>
<g id="a_edge9_Node000004_Node000007"><a xlink:title=" ">
<path fill="none" stroke="#63b8ff" d="M721.82,-249.42C748.53,-239.59 785.6,-225.95 809.44,-217.17"/>
<polygon fill="#63b8ff" stroke="#63b8ff" points="720.31,-246.25 712.14,-252.98 722.73,-252.82 720.31,-246.25"/>
</a>
</g>
</g>
<!-- Node5&#45;&gt;Node2 -->
<g id="edge7_Node000005_Node000002" class="edge">
<title>Node5&#45;&gt;Node2</title>
<g id="a_edge7_Node000005_Node000002"><a xlink:title=" ">
<path fill="none" stroke="#63b8ff" d="M590.75,-192.24C580.09,-184.75 568.83,-174.51 563,-162 557.37,-149.92 557.64,-144.21 563,-132 585.81,-79.99 644.72,-41.02 673.17,-24.58"/>
<polygon fill="#63b8ff" stroke="#63b8ff" points="589.12,-195.36 599.42,-197.87 592.94,-189.49 589.12,-195.36"/>
</a>
</g>
</g>
<!-- Node6 -->
<g id="Node000006" class="node">
<title>Node6</title>
<g id="a_Node000006"><a xlink:href="logger_8cpp.html" target="_top" xlink:title=" ">
<polygon fill="white" stroke="#666666" points="680,-156.5 572,-156.5 572,-137.5 680,-137.5 680,-156.5"/>
<text text-anchor="middle" x="626" y="-144.5" font-family="Helvetica,sans-Serif" font-size="10.00">src/core/logger.cpp</text>
</a>
</g>
</g>
<!-- Node5&#45;&gt;Node6 -->
<g id="edge8_Node000005_Node000006" class="edge">
<title>Node5&#45;&gt;Node6</title>
<g id="a_edge8_Node000005_Node000006"><a xlink:title=" ">
<path fill="none" stroke="#63b8ff" d="M619.16,-187.99C620.96,-177.51 623.11,-164.89 624.52,-156.67"/>
<polygon fill="#63b8ff" stroke="#63b8ff" points="615.71,-187.42 617.48,-197.87 622.61,-188.6 615.71,-187.42"/>
</a>
</g>
</g>
<!-- Node7&#45;&gt;Node2 -->
<g id="edge10_Node000007_Node000002" class="edge">
<title>Node7&#45;&gt;Node2</title>
<g id="a_edge10_Node000007_Node000002"><a xlink:title=" ">
<path fill="none" stroke="#63b8ff" d="M805.79,-193C792.29,-185.3 776.46,-174.66 765,-162 725.11,-117.93 699.87,-49.09 691.81,-24.83"/>
<polygon fill="#63b8ff" stroke="#63b8ff" points="804.23,-196.13 814.69,-197.84 807.58,-189.99 804.23,-196.13"/>
</a>
</g>
</g>
<!-- Node7&#45;&gt;Node8 -->
<g id="edge11_Node000007_Node000008" class="edge">
<title>Node7&#45;&gt;Node8</title>
<g id="a_edge11_Node000007_Node000008"><a xlink:title=" ">
<path fill="none" stroke="#63b8ff" d="M767.53,-198.37C675.23,-186.9 508.3,-166.17 420.15,-155.22"/>
<polygon fill="#63b8ff" stroke="#63b8ff" points="767.23,-201.86 777.59,-199.62 768.09,-194.91 767.23,-201.86"/>
</a>
</g>
</g>
<!-- Node14 -->
<g id="Node000014" class="node">
<title>Node14</title>
<g id="a_Node000014"><a xlink:href="assets__base_8hpp.html" target="_top" xlink:title=" ">
<polygon fill="white" stroke="#666666" points="1049.5,-162 910.5,-162 910.5,-132 1049.5,-132 1049.5,-162"/>
<text text-anchor="start" x="918.5" y="-150" font-family="Helvetica,sans-Serif" font-size="10.00">src/models/assets/assets</text>
<text text-anchor="middle" x="980" y="-139" font-family="Helvetica,sans-Serif" font-size="10.00">_base.hpp</text>
</a>
</g>
</g>
<!-- Node7&#45;&gt;Node14 -->
<g id="edge20_Node000007_Node000014" class="edge">
<title>Node7&#45;&gt;Node14</title>
<g id="a_edge20_Node000007_Node000014"><a xlink:title=" ">
<path fill="none" stroke="#63b8ff" d="M863.89,-194.21C887.48,-184.82 920.03,-171.87 944.66,-162.06"/>
<polygon fill="#63b8ff" stroke="#63b8ff" points="862.37,-191.04 854.38,-197.99 864.96,-197.55 862.37,-191.04"/>
</a>
</g>
</g>
<!-- Node16 -->
<g id="Node000016" class="node">
<title>Node16</title>
<g id="a_Node000016"><a xlink:href="expenses__base_8hpp.html" target="_top" xlink:title=" ">
<polygon fill="white" stroke="#666666" points="1186.5,-162 1067.5,-162 1067.5,-132 1186.5,-132 1186.5,-162"/>
<text text-anchor="start" x="1075.5" y="-150" font-family="Helvetica,sans-Serif" font-size="10.00">src/models/expenses</text>
<text text-anchor="middle" x="1127" y="-139" font-family="Helvetica,sans-Serif" font-size="10.00">/expenses_base.hpp</text>
</a>
</g>
</g>
<!-- Node7&#45;&gt;Node16 -->
<g id="edge23_Node000007_Node000016" class="edge">
<title>Node7&#45;&gt;Node16</title>
<g id="a_edge23_Node000007_Node000016"><a xlink:title=" ">
<path fill="none" stroke="#63b8ff" d="M886.53,-195.99C932.12,-187.02 999.38,-173.74 1058,-162 1061,-161.4 1064.07,-160.78 1067.16,-160.16"/>
<polygon fill="#63b8ff" stroke="#63b8ff" points="885.7,-192.59 876.57,-197.95 887.05,-199.45 885.7,-192.59"/>
</a>
</g>
</g>
<!-- Node18 -->
<g id="Node000018" class="node">
<title>Node18</title>
<g id="a_Node000018"><a xlink:href="income__base_8hpp.html" target="_top" xlink:title=" ">
<polygon fill="white" stroke="#666666" points="1481,-162 1333,-162 1333,-132 1481,-132 1481,-162"/>
<text text-anchor="start" x="1341" y="-150" font-family="Helvetica,sans-Serif" font-size="10.00">src/models/income/income</text>
<text text-anchor="middle" x="1407" y="-139" font-family="Helvetica,sans-Serif" font-size="10.00">_base.hpp</text>
</a>
</g>
</g>
<!-- Node7&#45;&gt;Node18 -->
<g id="edge26_Node000007_Node000018" class="edge">
<title>Node7&#45;&gt;Node18</title>
<g id="a_edge26_Node000007_Node000018"><a xlink:title=" ">
<path fill="none" stroke="#63b8ff" d="M898.1,-199.86C1005.63,-188.91 1219.69,-167.09 1332.87,-155.55"/>
<polygon fill="#63b8ff" stroke="#63b8ff" points="897.63,-196.39 888.04,-200.89 898.34,-203.36 897.63,-196.39"/>
</a>
</g>
</g>
<!-- Node22 -->
<g id="Node000022" class="node">
<title>Node22</title>
<g id="a_Node000022"><a xlink:href="liabilities__base_8hpp.html" target="_top" xlink:title=" ">
<polygon fill="white" stroke="#666666" points="892,-162 774,-162 774,-132 892,-132 892,-162"/>
<text text-anchor="start" x="782" y="-150" font-family="Helvetica,sans-Serif" font-size="10.00">src/models/liabilities</text>
<text text-anchor="middle" x="833" y="-139" font-family="Helvetica,sans-Serif" font-size="10.00">/liabilities_base.hpp</text>
</a>
</g>
</g>
<!-- Node7&#45;&gt;Node22 -->
<g id="edge32_Node000007_Node000022" class="edge">
<title>Node7&#45;&gt;Node22</title>
<g id="a_edge32_Node000007_Node000022"><a xlink:title=" ">
<path fill="none" stroke="#63b8ff" d="M833,-187.65C833,-179.36 833,-169.78 833,-162.11"/>
<polygon fill="#63b8ff" stroke="#63b8ff" points="829.5,-187.87 833,-197.87 836.5,-187.87 829.5,-187.87"/>
</a>
</g>
</g>
<!-- Node8&#45;&gt;Node2 -->
<g id="edge12_Node000008_Node000002" class="edge">
<title>Node8&#45;&gt;Node2</title>
<g id="a_edge12_Node000008_Node000002"><a xlink:title=" ">
<path fill="none" stroke="#63b8ff" d="M396.91,-126.86C412.97,-117.82 432.15,-106.69 449,-96 468.68,-83.52 470.81,-75.69 492,-66 537.57,-45.16 593.2,-32.06 633.7,-24.52"/>
<polygon fill="#63b8ff" stroke="#63b8ff" points="394.88,-123.99 387.86,-131.92 398.29,-130.1 394.88,-123.99"/>
</a>
</g>
</g>
<!-- Node9 -->
<g id="Node000009" class="node">
<title>Node9</title>
<g id="a_Node000009"><a xlink:href="account__base_8cpp.html" target="_top" xlink:title=" ">
<polygon fill="white" stroke="#666666" points="440,-96 324,-96 324,-66 440,-66 440,-96"/>
<text text-anchor="start" x="332" y="-84" font-family="Helvetica,sans-Serif" font-size="10.00">src/models/accounts</text>
<text text-anchor="middle" x="382" y="-73" font-family="Helvetica,sans-Serif" font-size="10.00">/account_base.cpp</text>
</a>
</g>
</g>
<!-- Node8&#45;&gt;Node9 -->
<g id="edge13_Node000008_Node000009" class="edge">
<title>Node8&#45;&gt;Node9</title>
<g id="a_edge13_Node000008_Node000009"><a xlink:title=" ">
<path fill="none" stroke="#63b8ff" d="M369.47,-122.11C372.19,-113.38 375.19,-103.78 377.57,-96.16"/>
<polygon fill="#63b8ff" stroke="#63b8ff" points="366.08,-121.21 366.44,-131.8 372.76,-123.3 366.08,-121.21"/>
</a>
</g>
</g>
<!-- Node10 -->
<g id="Node000010" class="node">
<title>Node10</title>
<g id="a_Node000010"><a xlink:href="checking__account_8hpp.html" target="_top" xlink:title=" ">
<polygon fill="white" stroke="#666666" points="306,-96 178,-96 178,-66 306,-66 306,-96"/>
<text text-anchor="start" x="186" y="-84" font-family="Helvetica,sans-Serif" font-size="10.00">src/models/accounts</text>
<text text-anchor="middle" x="242" y="-73" font-family="Helvetica,sans-Serif" font-size="10.00">/checking_account.hpp</text>
</a>
</g>
</g>
<!-- Node8&#45;&gt;Node10 -->
<g id="edge14_Node000008_Node000010" class="edge">
<title>Node8&#45;&gt;Node10</title>
<g id="a_edge14_Node000008_Node000010"><a xlink:title=" ">
<path fill="none" stroke="#63b8ff" d="M326.83,-127.24C308.1,-117.25 285.45,-105.18 268.27,-96.01"/>
<polygon fill="#63b8ff" stroke="#63b8ff" points="325.19,-130.34 335.67,-131.95 328.49,-124.16 325.19,-130.34"/>
</a>
</g>
</g>
<!-- Node12 -->
<g id="Node000012" class="node">
<title>Node12</title>
<g id="a_Node000012"><a xlink:href="savings__account_8hpp.html" target="_top" xlink:title=" ">
<polygon fill="white" stroke="#666666" points="122,-96 0,-96 0,-66 122,-66 122,-96"/>
<text text-anchor="start" x="8" y="-84" font-family="Helvetica,sans-Serif" font-size="10.00">src/models/accounts</text>
<text text-anchor="middle" x="61" y="-73" font-family="Helvetica,sans-Serif" font-size="10.00">/savings_account.hpp</text>
</a>
</g>
</g>
<!-- Node8&#45;&gt;Node12 -->
<g id="edge17_Node000008_Node000012" class="edge">
<title>Node8&#45;&gt;Node12</title>
<g id="a_edge17_Node000008_Node000012"><a xlink:title=" ">
<path fill="none" stroke="#63b8ff" d="M293.91,-131.52C242.31,-120.55 172.04,-105.61 122.22,-95.02"/>
<polygon fill="#63b8ff" stroke="#63b8ff" points="293.45,-135 303.96,-133.66 294.91,-128.16 293.45,-135"/>
</a>
</g>
</g>
<!-- Node10&#45;&gt;Node2 -->
<g id="edge15_Node000010_Node000002" class="edge">
<title>Node10&#45;&gt;Node2</title>
<g id="a_edge15_Node000010_Node000002"><a xlink:title=" ">
<path fill="none" stroke="#63b8ff" d="M316.14,-65.87C427.72,-47.93 545.78,-32.97 618.86,-24.18"/>
<polygon fill="#63b8ff" stroke="#63b8ff" points="315.37,-62.45 306.06,-67.5 316.49,-69.36 315.37,-62.45"/>
</a>
</g>
</g>
<!-- Node11 -->
<g id="Node000011" class="node">
<title>Node11</title>
<g id="a_Node000011"><a xlink:href="checking__account_8cpp.html" target="_top" xlink:title=" ">
<polygon fill="white" stroke="#666666" points="305.5,-30 178.5,-30 178.5,0 305.5,0 305.5,-30"/>
<text text-anchor="start" x="186.5" y="-18" font-family="Helvetica,sans-Serif" font-size="10.00">src/models/accounts</text>
<text text-anchor="middle" x="242" y="-7" font-family="Helvetica,sans-Serif" font-size="10.00">/checking_account.cpp</text>
</a>
</g>
</g>
<!-- Node10&#45;&gt;Node11 -->
<g id="edge16_Node000010_Node000011" class="edge">
<title>Node10&#45;&gt;Node11</title>
<g id="a_edge16_Node000010_Node000011"><a xlink:title=" ">
<path fill="none" stroke="#63b8ff" d="M242,-55.54C242,-46.96 242,-37.61 242,-30.16"/>
<polygon fill="#63b8ff" stroke="#63b8ff" points="238.5,-55.8 242,-65.8 245.5,-55.8 238.5,-55.8"/>
</a>
</g>
</g>
<!-- Node12&#45;&gt;Node2 -->
<g id="edge18_Node000012_Node000002" class="edge">
<title>Node12&#45;&gt;Node2</title>
<g id="a_edge18_Node000012_Node000002"><a xlink:title=" ">
<path fill="none" stroke="#63b8ff" d="M132.21,-66.54C133.48,-66.35 134.75,-66.17 136,-66 308.84,-42.11 513.71,-27.01 618.92,-20.21"/>
<polygon fill="#63b8ff" stroke="#63b8ff" points="131.67,-63.08 122.32,-68.07 132.74,-70 131.67,-63.08"/>
</a>
</g>
</g>
<!-- Node13 -->
<g id="Node000013" class="node">
<title>Node13</title>
<g id="a_Node000013"><a xlink:href="savings__account_8cpp.html" target="_top" xlink:title=" ">
<polygon fill="white" stroke="#666666" points="121.5,-30 0.5,-30 0.5,0 121.5,0 121.5,-30"/>
<text text-anchor="start" x="8.5" y="-18" font-family="Helvetica,sans-Serif" font-size="10.00">src/models/accounts</text>
<text text-anchor="middle" x="61" y="-7" font-family="Helvetica,sans-Serif" font-size="10.00">/savings_account.cpp</text>
</a>
</g>
</g>
<!-- Node12&#45;&gt;Node13 -->
<g id="edge19_Node000012_Node000013" class="edge">
<title>Node12&#45;&gt;Node13</title>
<g id="a_edge19_Node000012_Node000013"><a xlink:title=" ">
<path fill="none" stroke="#63b8ff" d="M61,-55.54C61,-46.96 61,-37.61 61,-30.16"/>
<polygon fill="#63b8ff" stroke="#63b8ff" points="57.5,-55.8 61,-65.8 64.5,-55.8 57.5,-55.8"/>
</a>
</g>
</g>
<!-- Node14&#45;&gt;Node2 -->
<g id="edge21_Node000014_Node000002" class="edge">
<title>Node14&#45;&gt;Node2</title>
<g id="a_edge21_Node000014_Node000002"><a xlink:title=" ">
<path fill="none" stroke="#63b8ff" d="M961.23,-124.45C942.55,-103.49 914.73,-73.71 901,-66 857.48,-41.56 802.47,-29.03 759.4,-22.63"/>
<polygon fill="#63b8ff" stroke="#63b8ff" points="958.65,-126.82 967.9,-131.99 963.89,-122.18 958.65,-126.82"/>
</a>
</g>
</g>
<!-- Node15 -->
<g id="Node000015" class="node">
<title>Node15</title>
<g id="a_Node000015"><a xlink:href="assets__base_8cpp.html" target="_top" xlink:title=" ">
<polygon fill="white" stroke="#666666" points="1087.5,-96 948.5,-96 948.5,-66 1087.5,-66 1087.5,-96"/>
<text text-anchor="start" x="956.5" y="-84" font-family="Helvetica,sans-Serif" font-size="10.00">src/models/assets/assets</text>
<text text-anchor="middle" x="1018" y="-73" font-family="Helvetica,sans-Serif" font-size="10.00">_base.cpp</text>
</a>
</g>
</g>
<!-- Node14&#45;&gt;Node15 -->
<g id="edge22_Node000014_Node000015" class="edge">
<title>Node14&#45;&gt;Node15</title>
<g id="a_edge22_Node000014_Node000015"><a xlink:title=" ">
<path fill="none" stroke="#63b8ff" d="M993.68,-122.96C999,-114 1004.92,-104.03 1009.59,-96.16"/>
<polygon fill="#63b8ff" stroke="#63b8ff" points="990.53,-121.41 988.43,-131.8 996.55,-124.98 990.53,-121.41"/>
</a>
</g>
</g>
<!-- Node16&#45;&gt;Node2 -->
<g id="edge24_Node000016_Node000002" class="edge">
<title>Node16&#45;&gt;Node2</title>
<g id="a_edge24_Node000016_Node000002"><a xlink:title=" ">
<path fill="none" stroke="#63b8ff" d="M1124.27,-121.89C1120.86,-103.6 1113.19,-79.39 1096,-66 1045.03,-26.3 861.75,-17.76 759.39,-16.15"/>
<polygon fill="#63b8ff" stroke="#63b8ff" points="1120.83,-122.51 1125.83,-131.85 1127.74,-121.43 1120.83,-122.51"/>
</a>
</g>
</g>
<!-- Node17 -->
<g id="Node000017" class="node">
<title>Node17</title>
<g id="a_Node000017"><a xlink:href="expenses__base_8cpp.html" target="_top" xlink:title=" ">
<polygon fill="white" stroke="#666666" points="1263.5,-96 1144.5,-96 1144.5,-66 1263.5,-66 1263.5,-96"/>
<text text-anchor="start" x="1152.5" y="-84" font-family="Helvetica,sans-Serif" font-size="10.00">src/models/expenses</text>
<text text-anchor="middle" x="1204" y="-73" font-family="Helvetica,sans-Serif" font-size="10.00">/expenses_base.cpp</text>
</a>
</g>
</g>
<!-- Node16&#45;&gt;Node17 -->
<g id="edge25_Node000016_Node000017" class="edge">
<title>Node16&#45;&gt;Node17</title>
<g id="a_edge25_Node000016_Node000017"><a xlink:title=" ">
<path fill="none" stroke="#63b8ff" d="M1152.02,-125.2C1163.45,-115.7 1176.7,-104.69 1186.96,-96.16"/>
<polygon fill="#63b8ff" stroke="#63b8ff" points="1149.54,-122.71 1144.09,-131.8 1154.02,-128.1 1149.54,-122.71"/>
</a>
</g>
</g>
<!-- Node18&#45;&gt;Node2 -->
<g id="edge27_Node000018_Node000002" class="edge">
<title>Node18&#45;&gt;Node2</title>
<g id="a_edge27_Node000018_Node000002"><a xlink:title=" ">
<path fill="none" stroke="#63b8ff" d="M1427.41,-123.86C1441.1,-106.32 1454.11,-82.15 1439,-66 1393.14,-16.98 936.53,-14.46 759.05,-15.36"/>
<polygon fill="#63b8ff" stroke="#63b8ff" points="1424.45,-121.95 1420.75,-131.88 1429.83,-126.42 1424.45,-121.95"/>
</a>
</g>
</g>
<!-- Node19 -->
<g id="Node000019" class="node">
<title>Node19</title>
<g id="a_Node000019"><a xlink:href="career__job_8hpp.html" target="_top" xlink:title=" ">
<polygon fill="white" stroke="#666666" points="1629.5,-96 1486.5,-96 1486.5,-66 1629.5,-66 1629.5,-96"/>
<text text-anchor="start" x="1494.5" y="-84" font-family="Helvetica,sans-Serif" font-size="10.00">src/models/income/career</text>
<text text-anchor="middle" x="1558" y="-73" font-family="Helvetica,sans-Serif" font-size="10.00">_job.hpp</text>
</a>
</g>
</g>
<!-- Node18&#45;&gt;Node19 -->
<g id="edge28_Node000018_Node000019" class="edge">
<title>Node18&#45;&gt;Node19</title>
<g id="a_edge28_Node000018_Node000019"><a xlink:title=" ">
<path fill="none" stroke="#63b8ff" d="M1449.66,-127.92C1473.53,-117.8 1502.83,-105.38 1524.94,-96.01"/>
<polygon fill="#63b8ff" stroke="#63b8ff" points="1447.98,-124.83 1440.14,-131.95 1450.71,-131.28 1447.98,-124.83"/>
</a>
</g>
</g>
<!-- Node21 -->
<g id="Node000021" class="node">
<title>Node21</title>
<g id="a_Node000021"><a xlink:href="income__base_8cpp.html" target="_top" xlink:title=" ">
<polygon fill="white" stroke="#666666" points="1430,-96 1282,-96 1282,-66 1430,-66 1430,-96"/>
<text text-anchor="start" x="1290" y="-84" font-family="Helvetica,sans-Serif" font-size="10.00">src/models/income/income</text>
<text text-anchor="middle" x="1356" y="-73" font-family="Helvetica,sans-Serif" font-size="10.00">_base.cpp</text>
</a>
</g>
</g>
<!-- Node18&#45;&gt;Node21 -->
<g id="edge31_Node000018_Node000021" class="edge">
<title>Node18&#45;&gt;Node21</title>
<g id="a_edge31_Node000018_Node000021"><a xlink:title=" ">
<path fill="none" stroke="#63b8ff" d="M1389.32,-123.81C1382.01,-114.64 1373.75,-104.28 1367.29,-96.16"/>
<polygon fill="#63b8ff" stroke="#63b8ff" points="1386.71,-126.16 1395.68,-131.8 1392.19,-121.79 1386.71,-126.16"/>
</a>
</g>
</g>
<!-- Node19&#45;&gt;Node2 -->
<g id="edge29_Node000019_Node000002" class="edge">
<title>Node19&#45;&gt;Node2</title>
<g id="a_edge29_Node000019_Node000002"><a xlink:title=" ">
<path fill="none" stroke="#63b8ff" d="M1475.96,-66.46C1474.63,-66.3 1473.31,-66.15 1472,-66 1209.92,-36.37 896.36,-22.96 759.12,-18.18"/>
<polygon fill="#63b8ff" stroke="#63b8ff" points="1475.91,-69.98 1486.28,-67.79 1476.8,-63.04 1475.91,-69.98"/>
</a>
</g>
</g>
<!-- Node19&#45;&gt;Node20 -->
<g id="edge30_Node000019_Node000020" class="edge">
<title>Node19&#45;&gt;Node20</title>
<g id="a_edge30_Node000019_Node000020"><a xlink:title=" ">
<path fill="none" stroke="#63b8ff" d="M1575.34,-57.81C1582.5,-48.64 1590.6,-38.28 1596.93,-30.16"/>
<polygon fill="#63b8ff" stroke="#63b8ff" points="1572.5,-55.76 1569.1,-65.8 1578.01,-60.07 1572.5,-55.76"/>
</a>
</g>
</g>
<!-- Node22&#45;&gt;Node2 -->
<g id="edge33_Node000022_Node000002" class="edge">
<title>Node22&#45;&gt;Node2</title>
<g id="a_edge33_Node000022_Node000002"><a xlink:title=" ">
<path fill="none" stroke="#63b8ff" d="M803.21,-125.83C790.99,-117.12 776.94,-106.53 765,-96 737.98,-72.18 709.66,-40.2 696.52,-24.89"/>
<polygon fill="#63b8ff" stroke="#63b8ff" points="801.54,-128.93 811.73,-131.82 805.56,-123.2 801.54,-128.93"/>
</a>
</g>
</g>
<!-- Node23 -->
<g id="Node000023" class="node">
<title>Node23</title>
<g id="a_Node000023"><a xlink:href="liabilities__base_8cpp.html" target="_top" xlink:title=" ">
<polygon fill="white" stroke="#666666" points="892,-96 774,-96 774,-66 892,-66 892,-96"/>
<text text-anchor="start" x="782" y="-84" font-family="Helvetica,sans-Serif" font-size="10.00">src/models/liabilities</text>
<text text-anchor="middle" x="833" y="-73" font-family="Helvetica,sans-Serif" font-size="10.00">/liabilities_base.cpp</text>
</a>
</g>
</g>
<!-- Node22&#45;&gt;Node23 -->
<g id="edge34_Node000022_Node000023" class="edge">
<title>Node22&#45;&gt;Node23</title>
<g id="a_edge34_Node000022_Node000023"><a xlink:title=" ">
<path fill="none" stroke="#63b8ff" d="M833,-121.54C833,-112.96 833,-103.61 833,-96.16"/>
<polygon fill="#63b8ff" stroke="#63b8ff" points="829.5,-121.8 833,-131.8 836.5,-121.8 829.5,-121.8"/>
</a>
</g>
</g>
<!-- Node24&#45;&gt;Node2 -->
<g id="edge36_Node000024_Node000002" class="edge">
<title>Node24&#45;&gt;Node2</title>
<g id="a_edge36_Node000024_Node000002"><a xlink:title=" ">
<path fill="none" stroke="#63b8ff" d="M532.02,-242.35C531.12,-203.65 534.76,-115.6 582,-66 601.94,-45.06 632.37,-32.02 655.69,-24.53"/>
<polygon fill="#63b8ff" stroke="#63b8ff" points="528.53,-242.82 532.4,-252.68 535.53,-242.56 528.53,-242.82"/>
</a>
</g>
</g>
<!-- Node24&#45;&gt;Node5 -->
<g id="edge38_Node000024_Node000005" class="edge">
<title>Node24&#45;&gt;Node5</title>
<g id="a_edge38_Node000024_Node000005"><a xlink:title=" ">
<path fill="none" stroke="#63b8ff" d="M555.04,-247.42C570.11,-237.81 589.59,-225.37 602.42,-217.17"/>
<polygon fill="#63b8ff" stroke="#63b8ff" points="552.88,-244.65 546.34,-252.98 556.65,-250.55 552.88,-244.65"/>
</a>
</g>
</g>
<!-- Node25 -->
<g id="Node000025" class="node">
<title>Node25</title>
<g id="a_Node000025"><a xlink:href="log__writer_8cpp.html" target="_top" xlink:title=" ">
<polygon fill="white" stroke="#666666" points="496,-217 370,-217 370,-198 496,-198 496,-217"/>
<text text-anchor="middle" x="433" y="-205" font-family="Helvetica,sans-Serif" font-size="10.00">src/core/log_writer.cpp</text>
</a>
</g>
</g>
<!-- Node24&#45;&gt;Node25 -->
<g id="edge37_Node000024_Node000025" class="edge">
<title>Node24&#45;&gt;Node25</title>
<g id="a_edge37_Node000024_Node000025"><a xlink:title=" ">
<path fill="none" stroke="#63b8ff" d="M507.97,-248.23C489.63,-238.51 465.26,-225.6 449.36,-217.17"/>
<polygon fill="#63b8ff" stroke="#63b8ff" points="506.46,-251.39 516.93,-252.98 509.74,-245.21 506.46,-251.39"/>
</a>
</g>
</g>
</g>
</svg>

<g id="navigator" transform="translate(0 0)" fill="#404254">
  <rect fill="#f2f5e9" fill-opacity="0.5" stroke="#606060" stroke-width=".5" x="0" y="0" width="60" height="60"/>
  <use id="zoomplus" xlink:href="#zoomPlus" x="17" y="9" onmousedown="handleZoom(evt,'in')"/>
  <use id="zoomminus" xlink:href="#zoomMin" x="42" y="9" onmousedown="handleZoom(evt,'out')"/>
  <use id="reset" xlink:href="#resetDef" x="30" y="36" onmousedown="handleReset()"/>
   <use id="arrowup" xlink:href="#arrowUp" x="0" y="0" onmousedown="handlePan(0,-1)"/>
  <use id="arrowright" xlink:href="#arrowRight" x="0" y="0" onmousedown="handlePan(1,0)"/>
  <use id="arrowdown" xlink:href="#arrowDown" x="0" y="0" onmousedown="handlePan(0,1)"/>
  <use id="arrowleft" xlink:href="#arrowLeft" x="0" y="0" onmousedown="handlePan(-1,0)"/>
</g>
<svg viewBox="0 0 15 15" width="100%" height="30px" preserveAspectRatio="xMaxYMin meet">
 <g id="arrow_out" transform="scale(0.3 0.3)">
  <a xlink:href="time_8hpp__dep__incl_org.svg" target="_base">
   <rect id="button" ry="5" rx="5" y="6" x="6" height="38" width="38"
        fill="#f2f5e9" fill-opacity="0.5" stroke="#606060" stroke-width="1.0"/>
   <path id="arrow"
     d="M 11.500037,31.436501 C 11.940474,20.09759 22.043105,11.32322 32.158766,21.979434 L 37.068811,17.246167 C 37.068811,17.246167 37.088388,32 37.088388,32 L 22.160133,31.978069 C 22.160133,31.978069 26.997745,27.140456 26.997745,27.140456 C 18.528582,18.264221 13.291696,25.230495 11.500037,31.436501 z"
     style="fill:#404040;"/>
  </a>
 </g>
</svg>

<style type='text/css'>
<![CDATA[
[data-mouse-over-selected='false'] { opacity: 0.7; }
[data-mouse-over-selected='true']  { opacity: 1.0; }
]]>
</style>
<script type="application/ecmascript"><![CDATA[
document.addEventListener('DOMContentLoaded', (event) => {
  highlightEdges();
  highlightAdjacentNodes();
});
]]></script>
</svg>
